<svg width="30" height="30" viewBox="0 0 30 30" fill="none" xmlns="http://www.w3.org/2000/svg">
<g clip-path="url(#clip0_42_2130)">
<path fill-rule="evenodd" clip-rule="evenodd" d="M21.0542 8.18486C19.5054 6.70773 17.4385 5.90303 15.3 5.9361C11.3867 5.9361 8.06318 8.57616 6.87816 12.1312C6.24983 13.9941 6.24983 16.0114 6.87816 17.8744H6.88366C8.07418 21.4239 11.3922 24.064 15.3055 24.064C17.3255 24.064 19.0597 23.5473 20.4038 22.6347V22.631C21.9857 21.5838 23.0659 19.9358 23.4022 18.0728H15.3V12.2966H29.4485C29.6248 13.2997 29.7075 14.3249 29.7075 15.3446C29.7075 19.9069 28.077 23.7641 25.2401 26.3766L25.243 26.3789C22.7573 28.6717 19.3455 30.0001 15.3 30.0001C9.62847 30.0001 4.44199 26.8033 1.8956 21.7381C-0.231888 17.4996 -0.231883 12.506 1.89561 8.26757C4.442 3.19684 9.62847 3.427e-05 15.3 3.427e-05C19.0259 -0.0440591 22.625 1.3559 25.3367 3.90229L21.0542 8.18486Z" fill="#FF8947"/>
</g>
<defs>
<clipPath id="clip0_42_2130">
<rect width="30" height="30" fill="white"/>
</clipPath>
</defs>
</svg>
