<svg width="30" height="30" viewBox="0 0 30 30" fill="none" xmlns="http://www.w3.org/2000/svg">
<path fill-rule="evenodd" clip-rule="evenodd" d="M15.4002 22.305C17.1143 21.4311 23.75 17.6354 23.75 11.25C23.75 6.41751 19.8325 2.5 15 2.5C10.1675 2.5 6.25 6.41751 6.25 11.25C6.25 17.6354 12.8857 21.4311 14.5998 22.305C14.8536 22.4344 15.1464 22.4344 15.4002 22.305ZM15 15C17.0711 15 18.75 13.3211 18.75 11.25C18.75 9.17893 17.0711 7.5 15 7.5C12.9289 7.5 11.25 9.17893 11.25 11.25C11.25 13.3211 12.9289 15 15 15Z" fill="#FF8947"/>
<path d="M22.5777 20.625C23.3457 21.1951 23.75 21.8417 23.75 22.5C23.75 23.1583 23.3457 23.8049 22.5777 24.375C21.8098 24.9451 20.7052 25.4185 19.375 25.7476C18.0448 26.0767 16.5359 26.25 15 26.25C13.4641 26.25 11.9552 26.0767 10.625 25.7476C9.29483 25.4185 8.19025 24.9451 7.42228 24.375C6.65431 23.8049 6.25 23.1583 6.25 22.5C6.25 21.8417 6.6543 21.1951 7.42228 20.625" stroke="#FF8947" stroke-width="2" stroke-linecap="round"/>
</svg>
