<svg width="80" height="80" viewBox="0 0 80 80" fill="none" xmlns="http://www.w3.org/2000/svg">
<rect width="80" height="80" fill="#D9D9D9"/>
<path d="M27.0344 26.12V35H26.1944V26.12H27.0344ZM31.8046 35.096C31.1886 35.096 30.6326 34.96 30.1366 34.688C29.6486 34.408 29.2606 34.016 28.9726 33.512C28.6926 33 28.5526 32.404 28.5526 31.724C28.5526 31.044 28.6966 30.452 28.9846 29.948C29.2726 29.436 29.6646 29.044 30.1606 28.772C30.6566 28.492 31.2126 28.352 31.8286 28.352C32.4446 28.352 33.0006 28.492 33.4966 28.772C34.0006 29.044 34.3926 29.436 34.6726 29.948C34.9606 30.452 35.1046 31.044 35.1046 31.724C35.1046 32.396 34.9606 32.988 34.6726 33.5C34.3846 34.012 33.9886 34.408 33.4846 34.688C32.9806 34.96 32.4206 35.096 31.8046 35.096ZM31.8046 34.364C32.2366 34.364 32.6366 34.268 33.0046 34.076C33.3726 33.876 33.6686 33.58 33.8926 33.188C34.1246 32.788 34.2406 32.3 34.2406 31.724C34.2406 31.148 34.1286 30.664 33.9046 30.272C33.6806 29.872 33.3846 29.576 33.0166 29.384C32.6486 29.184 32.2486 29.084 31.8166 29.084C31.3846 29.084 30.9846 29.184 30.6166 29.384C30.2486 29.576 29.9526 29.872 29.7286 30.272C29.5126 30.664 29.4046 31.148 29.4046 31.724C29.4046 32.3 29.5126 32.788 29.7286 33.188C29.9526 33.58 30.2446 33.876 30.6046 34.076C30.9726 34.268 31.3726 34.364 31.8046 34.364ZM39.3838 28.352C39.9998 28.352 40.5358 28.496 40.9918 28.784C41.4478 29.072 41.7758 29.436 41.9758 29.876V28.448H42.8158V35.168C42.8158 35.768 42.6838 36.3 42.4198 36.764C42.1638 37.228 41.8038 37.584 41.3398 37.832C40.8758 38.088 40.3478 38.216 39.7558 38.216C38.9158 38.216 38.2158 38.016 37.6558 37.616C37.1038 37.216 36.7598 36.672 36.6238 35.984H37.4518C37.5958 36.44 37.8678 36.804 38.2678 37.076C38.6758 37.348 39.1718 37.484 39.7558 37.484C40.1798 37.484 40.5598 37.392 40.8958 37.208C41.2318 37.032 41.4958 36.768 41.6878 36.416C41.8798 36.064 41.9758 35.648 41.9758 35.168V33.548C41.7678 33.996 41.4358 34.368 40.9798 34.664C40.5318 34.952 39.9998 35.096 39.3838 35.096C38.7838 35.096 38.2438 34.956 37.7638 34.676C37.2918 34.396 36.9198 34 36.6478 33.488C36.3838 32.976 36.2518 32.384 36.2518 31.712C36.2518 31.04 36.3838 30.452 36.6478 29.948C36.9198 29.436 37.2918 29.044 37.7638 28.772C38.2438 28.492 38.7838 28.352 39.3838 28.352ZM41.9758 31.724C41.9758 31.196 41.8678 30.732 41.6518 30.332C41.4358 29.932 41.1398 29.624 40.7638 29.408C40.3958 29.192 39.9878 29.084 39.5398 29.084C39.0758 29.084 38.6598 29.188 38.2918 29.396C37.9238 29.604 37.6318 29.908 37.4158 30.308C37.2078 30.7 37.1038 31.168 37.1038 31.712C37.1038 32.248 37.2078 32.72 37.4158 33.128C37.6318 33.528 37.9238 33.836 38.2918 34.052C38.6598 34.26 39.0758 34.364 39.5398 34.364C39.9878 34.364 40.3958 34.256 40.7638 34.04C41.1398 33.824 41.4358 33.516 41.6518 33.116C41.8678 32.716 41.9758 32.252 41.9758 31.724ZM47.6014 35.096C46.9854 35.096 46.4294 34.96 45.9334 34.688C45.4454 34.408 45.0574 34.016 44.7694 33.512C44.4894 33 44.3494 32.404 44.3494 31.724C44.3494 31.044 44.4934 30.452 44.7814 29.948C45.0694 29.436 45.4614 29.044 45.9574 28.772C46.4534 28.492 47.0094 28.352 47.6254 28.352C48.2414 28.352 48.7974 28.492 49.2934 28.772C49.7974 29.044 50.1894 29.436 50.4694 29.948C50.7574 30.452 50.9014 31.044 50.9014 31.724C50.9014 32.396 50.7574 32.988 50.4694 33.5C50.1814 34.012 49.7854 34.408 49.2814 34.688C48.7774 34.96 48.2174 35.096 47.6014 35.096ZM47.6014 34.364C48.0334 34.364 48.4334 34.268 48.8014 34.076C49.1694 33.876 49.4654 33.58 49.6894 33.188C49.9214 32.788 50.0374 32.3 50.0374 31.724C50.0374 31.148 49.9254 30.664 49.7014 30.272C49.4774 29.872 49.1814 29.576 48.8134 29.384C48.4454 29.184 48.0454 29.084 47.6134 29.084C47.1814 29.084 46.7814 29.184 46.4134 29.384C46.0454 29.576 45.7494 29.872 45.5254 30.272C45.3094 30.664 45.2014 31.148 45.2014 31.724C45.2014 32.3 45.3094 32.788 45.5254 33.188C45.7494 33.58 46.0414 33.876 46.4014 34.076C46.7694 34.268 47.1694 34.364 47.6014 34.364ZM5.93448 47.888C6.14248 47.448 6.47048 47.084 6.91848 46.796C7.37448 46.5 7.91448 46.352 8.53848 46.352C9.13048 46.352 9.66248 46.492 10.1345 46.772C10.6145 47.044 10.9865 47.436 11.2505 47.948C11.5225 48.452 11.6585 49.04 11.6585 49.712C11.6585 50.384 11.5225 50.976 11.2505 51.488C10.9865 52 10.6145 52.396 10.1345 52.676C9.66248 52.956 9.13048 53.096 8.53848 53.096C7.92248 53.096 7.38648 52.952 6.93048 52.664C6.47448 52.368 6.14248 52 5.93448 51.56V56.096H5.10648V46.448H5.93448V47.888ZM10.8065 49.712C10.8065 49.168 10.6985 48.7 10.4825 48.308C10.2745 47.908 9.98648 47.604 9.61848 47.396C9.25048 47.188 8.83448 47.084 8.37048 47.084C7.92248 47.084 7.51048 47.192 7.13448 47.408C6.76648 47.624 6.47448 47.932 6.25848 48.332C6.04248 48.732 5.93448 49.196 5.93448 49.724C5.93448 50.252 6.04248 50.716 6.25848 51.116C6.47448 51.516 6.76648 51.824 7.13448 52.04C7.51048 52.256 7.92248 52.364 8.37048 52.364C8.83448 52.364 9.25048 52.26 9.61848 52.052C9.98648 51.836 10.2745 51.528 10.4825 51.128C10.6985 50.72 10.8065 50.248 10.8065 49.712ZM14.0441 44.12V53H13.2041V44.12H14.0441ZM15.5623 49.712C15.5623 49.04 15.6943 48.452 15.9583 47.948C16.2303 47.436 16.6023 47.044 17.0743 46.772C17.5543 46.492 18.0943 46.352 18.6943 46.352C19.3183 46.352 19.8543 46.496 20.3023 46.784C20.7583 47.072 21.0863 47.44 21.2863 47.888V46.448H22.1263V53H21.2863V51.548C21.0783 51.996 20.7463 52.368 20.2903 52.664C19.8423 52.952 19.3063 53.096 18.6823 53.096C18.0903 53.096 17.5543 52.956 17.0743 52.676C16.6023 52.396 16.2303 52 15.9583 51.488C15.6943 50.976 15.5623 50.384 15.5623 49.712ZM21.2863 49.724C21.2863 49.196 21.1783 48.732 20.9623 48.332C20.7463 47.932 20.4503 47.624 20.0743 47.408C19.7063 47.192 19.2983 47.084 18.8503 47.084C18.3863 47.084 17.9703 47.188 17.6023 47.396C17.2343 47.604 16.9423 47.908 16.7263 48.308C16.5183 48.7 16.4143 49.168 16.4143 49.712C16.4143 50.248 16.5183 50.72 16.7263 51.128C16.9423 51.528 17.2343 51.836 17.6023 52.052C17.9703 52.26 18.3863 52.364 18.8503 52.364C19.2983 52.364 19.7063 52.256 20.0743 52.04C20.4503 51.824 20.7463 51.516 20.9623 51.116C21.1783 50.716 21.2863 50.252 21.2863 49.724ZM23.66 49.724C23.66 49.044 23.796 48.452 24.068 47.948C24.34 47.436 24.716 47.044 25.196 46.772C25.676 46.492 26.224 46.352 26.84 46.352C27.648 46.352 28.312 46.552 28.832 46.952C29.36 47.352 29.7 47.896 29.852 48.584H28.952C28.84 48.112 28.596 47.744 28.22 47.48C27.852 47.208 27.392 47.072 26.84 47.072C26.4 47.072 26.004 47.172 25.652 47.372C25.3 47.572 25.02 47.872 24.812 48.272C24.612 48.664 24.512 49.148 24.512 49.724C24.512 50.3 24.612 50.788 24.812 51.188C25.02 51.588 25.3 51.888 25.652 52.088C26.004 52.288 26.4 52.388 26.84 52.388C27.392 52.388 27.852 52.256 28.22 51.992C28.596 51.72 28.84 51.344 28.952 50.864H29.852C29.7 51.536 29.36 52.076 28.832 52.484C28.304 52.892 27.64 53.096 26.84 53.096C26.224 53.096 25.676 52.96 25.196 52.688C24.716 52.408 24.34 52.016 24.068 51.512C23.796 51 23.66 50.404 23.66 49.724ZM37.3314 49.388C37.3314 49.676 37.3234 49.896 37.3074 50.048H31.8714C31.8954 50.544 32.0154 50.968 32.2314 51.32C32.4474 51.672 32.7314 51.94 33.0834 52.124C33.4354 52.3 33.8194 52.388 34.2354 52.388C34.7794 52.388 35.2354 52.256 35.6034 51.992C35.9794 51.728 36.2274 51.372 36.3474 50.924H37.2354C37.0754 51.564 36.7314 52.088 36.2034 52.496C35.6834 52.896 35.0274 53.096 34.2354 53.096C33.6194 53.096 33.0674 52.96 32.5794 52.688C32.0914 52.408 31.7074 52.016 31.4274 51.512C31.1554 51 31.0194 50.404 31.0194 49.724C31.0194 49.044 31.1554 48.448 31.4274 47.936C31.6994 47.424 32.0794 47.032 32.5674 46.76C33.0554 46.488 33.6114 46.352 34.2354 46.352C34.8594 46.352 35.4034 46.488 35.8674 46.76C36.3394 47.032 36.6994 47.4 36.9474 47.864C37.2034 48.32 37.3314 48.828 37.3314 49.388ZM36.4794 49.364C36.4874 48.876 36.3874 48.46 36.1794 48.116C35.9794 47.772 35.7034 47.512 35.3514 47.336C34.9994 47.16 34.6154 47.072 34.1994 47.072C33.5754 47.072 33.0434 47.272 32.6034 47.672C32.1634 48.072 31.9194 48.636 31.8714 49.364H36.4794ZM41.9882 46.328C42.4842 46.328 42.9282 46.432 43.3202 46.64C43.7202 46.848 44.0322 47.168 44.2562 47.6C44.4882 48.024 44.6042 48.544 44.6042 49.16V53H43.7762V49.256C43.7762 48.544 43.5962 48 43.2362 47.624C42.8842 47.248 42.4002 47.06 41.7842 47.06C41.1522 47.06 40.6482 47.26 40.2722 47.66C39.8962 48.06 39.7082 48.648 39.7082 49.424V53H38.8682V44.12H39.7082V47.564C39.9162 47.172 40.2202 46.868 40.6202 46.652C41.0282 46.436 41.4842 46.328 41.9882 46.328ZM49.33 53.096C48.714 53.096 48.158 52.96 47.662 52.688C47.174 52.408 46.786 52.016 46.498 51.512C46.218 51 46.078 50.404 46.078 49.724C46.078 49.044 46.222 48.452 46.51 47.948C46.798 47.436 47.19 47.044 47.686 46.772C48.182 46.492 48.738 46.352 49.354 46.352C49.97 46.352 50.526 46.492 51.022 46.772C51.526 47.044 51.918 47.436 52.198 47.948C52.486 48.452 52.63 49.044 52.63 49.724C52.63 50.396 52.486 50.988 52.198 51.5C51.91 52.012 51.514 52.408 51.01 52.688C50.506 52.96 49.946 53.096 49.33 53.096ZM49.33 52.364C49.762 52.364 50.162 52.268 50.53 52.076C50.898 51.876 51.194 51.58 51.418 51.188C51.65 50.788 51.766 50.3 51.766 49.724C51.766 49.148 51.654 48.664 51.43 48.272C51.206 47.872 50.91 47.576 50.542 47.384C50.174 47.184 49.774 47.084 49.342 47.084C48.91 47.084 48.51 47.184 48.142 47.384C47.774 47.576 47.478 47.872 47.254 48.272C47.038 48.664 46.93 49.148 46.93 49.724C46.93 50.3 47.038 50.788 47.254 51.188C47.478 51.58 47.77 51.876 48.13 52.076C48.498 52.268 48.898 52.364 49.33 52.364ZM55.0012 44.12V53H54.1612V44.12H55.0012ZM56.5194 49.712C56.5194 49.04 56.6554 48.452 56.9274 47.948C57.1994 47.436 57.5714 47.044 58.0434 46.772C58.5234 46.492 59.0634 46.352 59.6634 46.352C60.2394 46.352 60.7594 46.492 61.2234 46.772C61.6874 47.052 62.0274 47.416 62.2434 47.864V44.12H63.0834V53H62.2434V51.536C62.0434 51.992 61.7154 52.368 61.2594 52.664C60.8034 52.952 60.2674 53.096 59.6514 53.096C59.0514 53.096 58.5114 52.956 58.0314 52.676C57.5594 52.396 57.1874 52 56.9154 51.488C56.6514 50.976 56.5194 50.384 56.5194 49.712ZM62.2434 49.724C62.2434 49.196 62.1354 48.732 61.9194 48.332C61.7034 47.932 61.4074 47.624 61.0314 47.408C60.6634 47.192 60.2554 47.084 59.8074 47.084C59.3434 47.084 58.9274 47.188 58.5594 47.396C58.1914 47.604 57.8994 47.908 57.6834 48.308C57.4754 48.7 57.3714 49.168 57.3714 49.712C57.3714 50.248 57.4754 50.72 57.6834 51.128C57.8994 51.528 58.1914 51.836 58.5594 52.052C58.9274 52.26 59.3434 52.364 59.8074 52.364C60.2554 52.364 60.6634 52.256 61.0314 52.04C61.4074 51.824 61.7034 51.516 61.9194 51.116C62.1354 50.716 62.2434 50.252 62.2434 49.724ZM70.929 49.388C70.929 49.676 70.921 49.896 70.905 50.048H65.469C65.493 50.544 65.613 50.968 65.829 51.32C66.045 51.672 66.329 51.94 66.681 52.124C67.033 52.3 67.417 52.388 67.833 52.388C68.377 52.388 68.833 52.256 69.201 51.992C69.577 51.728 69.825 51.372 69.945 50.924H70.833C70.673 51.564 70.329 52.088 69.801 52.496C69.281 52.896 68.625 53.096 67.833 53.096C67.217 53.096 66.665 52.96 66.177 52.688C65.689 52.408 65.305 52.016 65.025 51.512C64.753 51 64.617 50.404 64.617 49.724C64.617 49.044 64.753 48.448 65.025 47.936C65.297 47.424 65.677 47.032 66.165 46.76C66.653 46.488 67.209 46.352 67.833 46.352C68.457 46.352 69.001 46.488 69.465 46.76C69.937 47.032 70.297 47.4 70.545 47.864C70.801 48.32 70.929 48.828 70.929 49.388ZM70.077 49.364C70.085 48.876 69.985 48.46 69.777 48.116C69.577 47.772 69.301 47.512 68.949 47.336C68.597 47.16 68.213 47.072 67.797 47.072C67.173 47.072 66.641 47.272 66.201 47.672C65.761 48.072 65.517 48.636 65.469 49.364H70.077ZM73.3059 47.612C73.4899 47.204 73.7699 46.888 74.1459 46.664C74.5299 46.44 74.9979 46.328 75.5499 46.328V47.204H75.3219C74.7139 47.204 74.2259 47.368 73.8579 47.696C73.4899 48.024 73.3059 48.572 73.3059 49.34V53H72.4659V46.448H73.3059V47.612Z" fill="black"/>
</svg>
