<svg width="793" height="478" viewBox="0 0 793 478" fill="none" xmlns="http://www.w3.org/2000/svg">
<rect width="793" height="478" rx="40" fill="#D9D9D9"/>
<path d="M355.614 216.712V261H349.79V227.976L335.07 261H330.974L316.19 227.912V261H310.366V216.712H316.638L333.022 253.32L349.406 216.712H355.614ZM396.595 225.928V261H390.771V255.816C389.661 257.608 388.104 259.016 386.099 260.04C384.136 261.021 381.96 261.512 379.571 261.512C376.84 261.512 374.387 260.957 372.211 259.848C370.035 258.696 368.307 256.989 367.027 254.728C365.789 252.467 365.171 249.715 365.171 246.472V225.928H370.931V245.704C370.931 249.16 371.805 251.827 373.555 253.704C375.304 255.539 377.693 256.456 380.723 256.456C383.837 256.456 386.291 255.496 388.083 253.576C389.875 251.656 390.771 248.861 390.771 245.192V225.928H396.595ZM418.844 261.576C416.156 261.576 413.745 261.128 411.612 260.232C409.479 259.293 407.793 258.013 406.556 256.392C405.319 254.728 404.636 252.829 404.508 250.696H410.524C410.695 252.445 411.505 253.875 412.956 254.984C414.449 256.093 416.391 256.648 418.78 256.648C420.999 256.648 422.748 256.157 424.028 255.176C425.308 254.195 425.948 252.957 425.948 251.464C425.948 249.928 425.265 248.797 423.9 248.072C422.535 247.304 420.423 246.557 417.564 245.832C414.961 245.149 412.828 244.467 411.164 243.784C409.543 243.059 408.135 242.013 406.94 240.648C405.788 239.24 405.212 237.405 405.212 235.144C405.212 233.352 405.745 231.709 406.812 230.216C407.879 228.723 409.393 227.549 411.356 226.696C413.319 225.8 415.559 225.352 418.076 225.352C421.959 225.352 425.095 226.333 427.484 228.296C429.873 230.259 431.153 232.947 431.324 236.36H425.5C425.372 234.525 424.625 233.053 423.26 231.944C421.937 230.835 420.145 230.28 417.884 230.28C415.793 230.28 414.129 230.728 412.892 231.624C411.655 232.52 411.036 233.693 411.036 235.144C411.036 236.296 411.399 237.256 412.124 238.024C412.892 238.749 413.831 239.347 414.94 239.816C416.092 240.243 417.671 240.733 419.676 241.288C422.193 241.971 424.241 242.653 425.82 243.336C427.399 243.976 428.743 244.957 429.852 246.28C431.004 247.603 431.601 249.331 431.644 251.464C431.644 253.384 431.111 255.112 430.044 256.648C428.977 258.184 427.463 259.4 425.5 260.296C423.58 261.149 421.361 261.576 418.844 261.576ZM442.874 220.232C441.764 220.232 440.826 219.848 440.058 219.08C439.29 218.312 438.906 217.373 438.906 216.264C438.906 215.155 439.29 214.216 440.058 213.448C440.826 212.68 441.764 212.296 442.874 212.296C443.94 212.296 444.836 212.68 445.562 213.448C446.33 214.216 446.714 215.155 446.714 216.264C446.714 217.373 446.33 218.312 445.562 219.08C444.836 219.848 443.94 220.232 442.874 220.232ZM445.69 225.928V261H439.866V225.928H445.69ZM453.44 243.4C453.44 239.773 454.165 236.616 455.616 233.928C457.066 231.197 459.072 229.085 461.632 227.592C464.234 226.099 467.2 225.352 470.528 225.352C474.837 225.352 478.378 226.397 481.152 228.488C483.968 230.579 485.824 233.48 486.72 237.192H480.448C479.85 235.059 478.677 233.373 476.928 232.136C475.221 230.899 473.088 230.28 470.528 230.28C467.2 230.28 464.512 231.432 462.464 233.736C460.416 235.997 459.392 239.219 459.392 243.4C459.392 247.624 460.416 250.888 462.464 253.192C464.512 255.496 467.2 256.648 470.528 256.648C473.088 256.648 475.221 256.051 476.928 254.856C478.634 253.661 479.808 251.955 480.448 249.736H486.72C485.781 253.32 483.904 256.2 481.088 258.376C478.272 260.509 474.752 261.576 470.528 261.576C467.2 261.576 464.234 260.829 461.632 259.336C459.072 257.843 457.066 255.731 455.616 253C454.165 250.269 453.44 247.069 453.44 243.4Z" fill="black"/>
</svg>
