<svg width="793" height="478" viewBox="0 0 793 478" fill="none" xmlns="http://www.w3.org/2000/svg">
<rect width="793" height="478" rx="40" fill="#D9D9D9"/>
<path d="M315.541 261.448C312.597 261.448 309.951 260.936 307.605 259.912C305.301 258.845 303.487 257.395 302.165 255.56C300.842 253.683 300.159 251.528 300.117 249.096H306.325C306.538 251.187 307.391 252.957 308.885 254.408C310.421 255.816 312.639 256.52 315.541 256.52C318.314 256.52 320.49 255.837 322.069 254.472C323.69 253.064 324.501 251.272 324.501 249.096C324.501 247.389 324.031 246.003 323.093 244.936C322.154 243.869 320.981 243.059 319.573 242.504C318.165 241.949 316.266 241.352 313.877 240.712C310.933 239.944 308.565 239.176 306.773 238.408C305.023 237.64 303.509 236.445 302.229 234.824C300.991 233.16 300.373 230.941 300.373 228.168C300.373 225.736 300.991 223.581 302.229 221.704C303.466 219.827 305.194 218.376 307.413 217.352C309.674 216.328 312.255 215.816 315.157 215.816C319.338 215.816 322.751 216.861 325.397 218.952C328.085 221.043 329.599 223.816 329.941 227.272H323.541C323.327 225.565 322.431 224.072 320.853 222.792C319.274 221.469 317.183 220.808 314.581 220.808C312.149 220.808 310.165 221.448 308.629 222.728C307.093 223.965 306.325 225.715 306.325 227.976C306.325 229.597 306.773 230.92 307.669 231.944C308.607 232.968 309.738 233.757 311.061 234.312C312.426 234.824 314.325 235.421 316.757 236.104C319.701 236.915 322.069 237.725 323.861 238.536C325.653 239.304 327.189 240.52 328.469 242.184C329.749 243.805 330.389 246.024 330.389 248.84C330.389 251.016 329.813 253.064 328.661 254.984C327.509 256.904 325.802 258.461 323.541 259.656C321.279 260.851 318.613 261.448 315.541 261.448ZM341.967 220.232C340.858 220.232 339.919 219.848 339.151 219.08C338.383 218.312 337.999 217.373 337.999 216.264C337.999 215.155 338.383 214.216 339.151 213.448C339.919 212.68 340.858 212.296 341.967 212.296C343.034 212.296 343.93 212.68 344.655 213.448C345.423 214.216 345.807 215.155 345.807 216.264C345.807 217.373 345.423 218.312 344.655 219.08C343.93 219.848 343.034 220.232 341.967 220.232ZM344.783 225.928V261H338.959V225.928H344.783ZM371.797 225.288C376.064 225.288 379.52 226.589 382.165 229.192C384.811 231.752 386.133 235.464 386.133 240.328V261H380.373V241.16C380.373 237.661 379.499 234.995 377.749 233.16C376 231.283 373.611 230.344 370.581 230.344C367.509 230.344 365.056 231.304 363.221 233.224C361.429 235.144 360.533 237.939 360.533 241.608V261H354.709V225.928H360.533V230.92C361.685 229.128 363.243 227.741 365.205 226.76C367.211 225.779 369.408 225.288 371.797 225.288ZM410.111 225.352C413.14 225.352 415.785 226.013 418.047 227.336C420.351 228.659 422.057 230.323 423.167 232.328V225.928H429.055V261.768C429.055 264.968 428.372 267.805 427.007 270.28C425.641 272.797 423.679 274.76 421.119 276.168C418.601 277.576 415.657 278.28 412.287 278.28C407.679 278.28 403.839 277.192 400.767 275.016C397.695 272.84 395.881 269.875 395.327 266.12H401.087C401.727 268.253 403.049 269.96 405.055 271.24C407.06 272.563 409.471 273.224 412.287 273.224C415.487 273.224 418.089 272.221 420.095 270.216C422.143 268.211 423.167 265.395 423.167 261.768V254.408C422.015 256.456 420.308 258.163 418.047 259.528C415.785 260.893 413.14 261.576 410.111 261.576C406.996 261.576 404.159 260.808 401.599 259.272C399.081 257.736 397.097 255.581 395.647 252.808C394.196 250.035 393.471 246.877 393.471 243.336C393.471 239.752 394.196 236.616 395.647 233.928C397.097 231.197 399.081 229.085 401.599 227.592C404.159 226.099 406.996 225.352 410.111 225.352ZM423.167 243.4C423.167 240.755 422.633 238.451 421.567 236.488C420.5 234.525 419.049 233.032 417.215 232.008C415.423 230.941 413.439 230.408 411.263 230.408C409.087 230.408 407.103 230.92 405.311 231.944C403.519 232.968 402.089 234.461 401.023 236.424C399.956 238.387 399.423 240.691 399.423 243.336C399.423 246.024 399.956 248.371 401.023 250.376C402.089 252.339 403.519 253.853 405.311 254.92C407.103 255.944 409.087 256.456 411.263 256.456C413.439 256.456 415.423 255.944 417.215 254.92C419.049 253.853 420.5 252.339 421.567 250.376C422.633 248.371 423.167 246.045 423.167 243.4ZM470.897 242.12C470.897 243.229 470.833 244.403 470.705 245.64H442.673C442.886 249.096 444.059 251.805 446.193 253.768C448.369 255.688 450.993 256.648 454.065 256.648C456.582 256.648 458.673 256.072 460.337 254.92C462.043 253.725 463.238 252.147 463.921 250.184H470.193C469.254 253.555 467.377 256.307 464.561 258.44C461.745 260.531 458.246 261.576 454.065 261.576C450.737 261.576 447.75 260.829 445.105 259.336C442.502 257.843 440.454 255.731 438.961 253C437.467 250.227 436.721 247.027 436.721 243.4C436.721 239.773 437.446 236.595 438.897 233.864C440.347 231.133 442.374 229.043 444.977 227.592C447.622 226.099 450.651 225.352 454.065 225.352C457.393 225.352 460.337 226.077 462.897 227.528C465.457 228.979 467.419 230.984 468.785 233.544C470.193 236.061 470.897 238.92 470.897 242.12ZM464.881 240.904C464.881 238.685 464.39 236.787 463.409 235.208C462.427 233.587 461.083 232.371 459.377 231.56C457.713 230.707 455.857 230.28 453.809 230.28C450.865 230.28 448.347 231.219 446.257 233.096C444.209 234.973 443.035 237.576 442.737 240.904H464.881ZM484.408 231.624C485.432 229.619 486.883 228.061 488.76 226.952C490.68 225.843 493.006 225.288 495.736 225.288V231.304H494.2C487.672 231.304 484.408 234.845 484.408 241.928V261H478.584V225.928H484.408V231.624Z" fill="black"/>
</svg>
