<svg width="1440" height="241" viewBox="0 0 1440 241" fill="none" xmlns="http://www.w3.org/2000/svg">
<g opacity="0.8">
<rect x="1380" y="180.562" width="60" height="60" fill="#970D0D"/>
<path d="M1395 225.562H1425L1440 240.562H1380L1395 225.562Z" fill="#580404"/>
<path d="M1425 225.562V195.562L1440 180.562V240.562L1425 225.562Z" fill="#690B0B"/>
<path d="M1395 195.562V225.562L1380 240.562V180.562L1395 195.562Z" fill="#6C2E2E"/>
<path d="M1425 195.562H1395L1380 180.562H1440L1425 195.562Z" fill="#8E2B2B"/>
<rect x="1320" y="180.562" width="60" height="60" fill="#970D0D"/>
<path d="M1335 225.562H1365L1380 240.562H1320L1335 225.562Z" fill="#580404"/>
<path d="M1365 225.562V195.562L1380 180.562V240.562L1365 225.562Z" fill="#690B0B"/>
<path d="M1335 195.562V225.562L1320 240.562V180.562L1335 195.562Z" fill="#6C2E2E"/>
<path d="M1365 195.562H1335L1320 180.562H1380L1365 195.562Z" fill="#8E2B2B"/>
<rect x="1260" y="180.562" width="60" height="60" fill="#970D0D"/>
<path d="M1275 225.562H1305L1320 240.562H1260L1275 225.562Z" fill="#580404"/>
<path d="M1305 225.562V195.562L1320 180.562V240.562L1305 225.562Z" fill="#690B0B"/>
<path d="M1275 195.562V225.562L1260 240.562V180.562L1275 195.562Z" fill="#6C2E2E"/>
<path d="M1305 195.562H1275L1260 180.562H1320L1305 195.562Z" fill="#8E2B2B"/>
<rect x="1200" y="180.562" width="60" height="60" fill="#970D0D"/>
<path d="M1215 225.562H1245L1260 240.562H1200L1215 225.562Z" fill="#580404"/>
<path d="M1245 225.562V195.562L1260 180.562V240.562L1245 225.562Z" fill="#690B0B"/>
<path d="M1215 195.562V225.562L1200 240.562V180.562L1215 195.562Z" fill="#6C2E2E"/>
<path d="M1245 195.562H1215L1200 180.562H1260L1245 195.562Z" fill="#8E2B2B"/>
<rect width="60" height="60" transform="matrix(0 -1 -1 0 1200 180.562)" fill="#045E5E"/>
<path d="M1155 165.562V135.562L1140 120.562V180.562L1155 165.562Z" fill="#083434"/>
<path d="M1155 135.562H1185L1200 120.562H1140L1155 135.562Z" fill="#076666"/>
<path d="M1185 165.562H1155L1140 180.562H1200L1185 165.562Z" fill="#478787"/>
<path d="M1185 135.562V165.562L1200 180.562V120.562L1185 135.562Z" fill="#247575"/>
<rect width="60" height="60" transform="matrix(0 -1 -1 0 1260 180.562)" fill="#045E5E"/>
<path d="M1215 165.562V135.562L1200 120.562V180.562L1215 165.562Z" fill="#083434"/>
<path d="M1215 135.562H1245L1260 120.562H1200L1215 135.562Z" fill="#076666"/>
<path d="M1245 165.562H1215L1200 180.562H1260L1245 165.562Z" fill="#478787"/>
<path d="M1245 135.562V165.562L1260 180.562V120.562L1245 135.562Z" fill="#247575"/>
<rect width="60" height="60" transform="matrix(0 -1 -1 0 1320 180.562)" fill="#045E5E"/>
<path d="M1275 165.562V135.562L1260 120.562V180.562L1275 165.562Z" fill="#083434"/>
<path d="M1275 135.562H1305L1320 120.562H1260L1275 135.562Z" fill="#076666"/>
<path d="M1305 165.562H1275L1260 180.562H1320L1305 165.562Z" fill="#478787"/>
<path d="M1305 135.562V165.562L1320 180.562V120.562L1305 135.562Z" fill="#247575"/>
<rect width="60" height="60" transform="matrix(0 -1 -1 0 1200 240.562)" fill="#045E5E"/>
<path d="M1155 225.562V195.562L1140 180.562V240.562L1155 225.562Z" fill="#083434"/>
<path d="M1155 195.562H1185L1200 180.562H1140L1155 195.562Z" fill="#076666"/>
<path d="M1185 225.562H1155L1140 240.562H1200L1185 225.562Z" fill="#478787"/>
<path d="M1185 195.562V225.562L1200 240.562V180.562L1185 195.562Z" fill="#247575"/>
<rect x="1200" y="120.562" width="60" height="60" transform="rotate(-90 1200 120.562)" fill="#A4A409"/>
<path d="M1245 105.562V75.5621L1260 60.5621V120.562L1245 105.562Z" fill="#3F3F13"/>
<path d="M1245 75.5621L1215 75.5621L1200 60.5621L1260 60.5621L1245 75.5621Z" fill="#50500B"/>
<path d="M1215 105.562H1245L1260 120.562L1200 120.562L1215 105.562Z" fill="#8D8D40"/>
<path d="M1215 75.5621V105.562L1200 120.562V60.5621L1215 75.5621Z" fill="#7E7E25"/>
<rect x="1140" y="120.562" width="60" height="60" transform="rotate(-90 1140 120.562)" fill="#A4A409"/>
<path d="M1185 105.562V75.5621L1200 60.5621V120.562L1185 105.562Z" fill="#3F3F13"/>
<path d="M1185 75.5621L1155 75.5621L1140 60.5621L1200 60.5621L1185 75.5621Z" fill="#50500B"/>
<path d="M1155 105.562H1185L1200 120.562L1140 120.562L1155 105.562Z" fill="#8D8D40"/>
<path d="M1155 75.5621V105.562L1140 120.562V60.5621L1155 75.5621Z" fill="#7E7E25"/>
<rect x="1080" y="120.562" width="60" height="60" transform="rotate(-90 1080 120.562)" fill="#A4A409"/>
<path d="M1125 105.562V75.5621L1140 60.5621V120.562L1125 105.562Z" fill="#3F3F13"/>
<path d="M1125 75.5621L1095 75.5621L1080 60.5621L1140 60.5621L1125 75.5621Z" fill="#50500B"/>
<path d="M1095 105.562H1125L1140 120.562L1080 120.562L1095 105.562Z" fill="#8D8D40"/>
<path d="M1095 75.5621V105.562L1080 120.562V60.5621L1095 75.5621Z" fill="#7E7E25"/>
<rect x="1140" y="60.5621" width="60" height="60" transform="rotate(-90 1140 60.5621)" fill="#A4A409"/>
<path d="M1185 45.5621V15.5621L1200 0.56213V60.5621L1185 45.5621Z" fill="#3F3F13"/>
<path d="M1185 15.5621L1155 15.5621L1140 0.562134L1200 0.562134L1185 15.5621Z" fill="#50500B"/>
<path d="M1155 45.5621L1185 45.5621L1200 60.5621L1140 60.5621L1155 45.5621Z" fill="#8D8D40"/>
<path d="M1155 15.5621V45.5621L1140 60.5621V0.562134L1155 15.5621Z" fill="#7E7E25"/>
<rect x="1080" y="180.562" width="60" height="60" fill="#690969"/>
<path d="M1095 225.562H1125L1140 240.562H1080L1095 225.562Z" fill="#460E46"/>
<path d="M1125 225.562V195.562L1140 180.562V240.562L1125 225.562Z" fill="#580658"/>
<path d="M1095 195.562V225.562L1080 240.562V180.562L1095 195.562Z" fill="#791F79"/>
<path d="M1125 195.562H1095L1080 180.562H1140L1125 195.562Z" fill="#972F97"/>
<rect x="1080" y="120.562" width="60" height="60" fill="#690969"/>
<path d="M1095 165.562H1125L1140 180.562H1080L1095 165.562Z" fill="#460E46"/>
<path d="M1125 165.562V135.562L1140 120.562V180.562L1125 165.562Z" fill="#580658"/>
<path d="M1095 135.562V165.562L1080 180.562V120.562L1095 135.562Z" fill="#791F79"/>
<path d="M1125 135.562H1095L1080 120.562H1140L1125 135.562Z" fill="#972F97"/>
<rect x="1020" y="180.562" width="60" height="60" fill="#690969"/>
<path d="M1035 225.562H1065L1080 240.562H1020L1035 225.562Z" fill="#460E46"/>
<path d="M1065 225.562V195.562L1080 180.562V240.562L1065 225.562Z" fill="#580658"/>
<path d="M1035 195.562V225.562L1020 240.562V180.562L1035 195.562Z" fill="#791F79"/>
<path d="M1065 195.562H1035L1020 180.562H1080L1065 195.562Z" fill="#972F97"/>
<rect x="1020" y="120.562" width="60" height="60" fill="#690969"/>
<path d="M1035 165.562H1065L1080 180.562H1020L1035 165.562Z" fill="#460E46"/>
<path d="M1065 165.562V135.562L1080 120.562V180.562L1065 165.562Z" fill="#580658"/>
<path d="M1035 135.562V165.562L1020 180.562V120.562L1035 135.562Z" fill="#791F79"/>
<path d="M1065 135.562H1035L1020 120.562H1080L1065 135.562Z" fill="#972F97"/>
<rect width="60" height="60" transform="matrix(-1 0 0 1 960 120.562)" fill="#690969"/>
<path d="M945 165.562H915L900 180.562H960L945 165.562Z" fill="#460E46"/>
<path d="M915 165.562V135.562L900 120.562V180.562L915 165.562Z" fill="#580658"/>
<path d="M945 135.562V165.562L960 180.562V120.562L945 135.562Z" fill="#791F79"/>
<path d="M915 135.562H945L960 120.562H900L915 135.562Z" fill="#972F97"/>
<rect width="60" height="60" transform="matrix(-1 0 0 1 960 60.5621)" fill="#690969"/>
<path d="M945 105.562H915L900 120.562H960L945 105.562Z" fill="#460E46"/>
<path d="M915 105.562V75.5621L900 60.5621V120.562L915 105.562Z" fill="#580658"/>
<path d="M945 75.5621V105.562L960 120.562V60.5621L945 75.5621Z" fill="#791F79"/>
<path d="M915 75.5621H945L960 60.5621L900 60.5621L915 75.5621Z" fill="#972F97"/>
<rect width="60" height="60" transform="matrix(-1 0 0 1 900 60.5621)" fill="#690969"/>
<path d="M885 105.562H855L840 120.562H900L885 105.562Z" fill="#460E46"/>
<path d="M855 105.562V75.5621L840 60.5621V120.562L855 105.562Z" fill="#580658"/>
<path d="M885 75.5621V105.562L900 120.562V60.5621L885 75.5621Z" fill="#791F79"/>
<path d="M855 75.5621H885L900 60.5621L840 60.5621L855 75.5621Z" fill="#972F97"/>
<rect width="60" height="60" transform="matrix(-1 0 0 1 900 0.562134)" fill="#690969"/>
<path d="M885 45.5621H855L840 60.5621H900L885 45.5621Z" fill="#460E46"/>
<path d="M855 45.5621V15.5621L840 0.56213V60.5621L855 45.5621Z" fill="#580658"/>
<path d="M885 15.5621V45.5621L900 60.5621V0.562134L885 15.5621Z" fill="#791F79"/>
<path d="M855 15.5621L885 15.5621L900 0.562134L840 0.562134L855 15.5621Z" fill="#972F97"/>
<rect x="1320" y="60.5621" width="60" height="60" transform="rotate(90 1320 60.5621)" fill="#690969"/>
<path d="M1275 75.5621V105.562L1260 120.562V60.5621L1275 75.5621Z" fill="#460E46"/>
<path d="M1275 105.562H1305L1320 120.562H1260L1275 105.562Z" fill="#580658"/>
<path d="M1305 75.5621L1275 75.5621L1260 60.5621L1320 60.5621L1305 75.5621Z" fill="#791F79"/>
<path d="M1305 105.562V75.5621L1320 60.5621V120.562L1305 105.562Z" fill="#972F97"/>
<rect x="1380" y="60.5621" width="60" height="60" transform="rotate(90 1380 60.5621)" fill="#690969"/>
<path d="M1335 75.5621V105.562L1320 120.562V60.5621L1335 75.5621Z" fill="#460E46"/>
<path d="M1335 105.562H1365L1380 120.562H1320L1335 105.562Z" fill="#580658"/>
<path d="M1365 75.5621L1335 75.5621L1320 60.5621L1380 60.5621L1365 75.5621Z" fill="#791F79"/>
<path d="M1365 105.562V75.5621L1380 60.5621V120.562L1365 105.562Z" fill="#972F97"/>
<rect x="1380" y="120.562" width="60" height="60" transform="rotate(90 1380 120.562)" fill="#690969"/>
<path d="M1335 135.562V165.562L1320 180.562V120.562L1335 135.562Z" fill="#460E46"/>
<path d="M1335 165.562H1365L1380 180.562H1320L1335 165.562Z" fill="#580658"/>
<path d="M1365 135.562H1335L1320 120.562L1380 120.562L1365 135.562Z" fill="#791F79"/>
<path d="M1365 165.562V135.562L1380 120.562V180.562L1365 165.562Z" fill="#972F97"/>
<rect x="1440" y="120.562" width="60" height="60" transform="rotate(90 1440 120.562)" fill="#690969"/>
<path d="M1395 135.562V165.562L1380 180.562V120.562L1395 135.562Z" fill="#460E46"/>
<path d="M1395 165.562H1425L1440 180.562H1380L1395 165.562Z" fill="#580658"/>
<path d="M1425 135.562H1395L1380 120.562L1440 120.562L1425 135.562Z" fill="#791F79"/>
<path d="M1425 165.562V135.562L1440 120.562V180.562L1425 165.562Z" fill="#972F97"/>
<rect x="960" y="180.562" width="60" height="60" fill="#0B0B9E"/>
<path d="M975 225.562H1005L1020 240.562H960L975 225.562Z" fill="#0D0D4F"/>
<path d="M1005 225.562V195.562L1020 180.562V240.562L1005 225.562Z" fill="#0C0C64"/>
<path d="M975 195.562V225.562L960 240.562V180.562L975 195.562Z" fill="#292984"/>
<path d="M1005 195.562H975L960 180.562H1020L1005 195.562Z" fill="#1C1C70"/>
<rect x="960" y="120.562" width="60" height="60" fill="#0B0B9E"/>
<path d="M975 165.562H1005L1020 180.562H960L975 165.562Z" fill="#0D0D4F"/>
<path d="M1005 165.562V135.562L1020 120.562V180.562L1005 165.562Z" fill="#0C0C64"/>
<path d="M975 135.562V165.562L960 180.562V120.562L975 135.562Z" fill="#292984"/>
<path d="M1005 135.562H975L960 120.562H1020L1005 135.562Z" fill="#1C1C70"/>
<rect x="960" y="60.5621" width="60" height="60" fill="#0B0B9E"/>
<path d="M975 105.562H1005L1020 120.562H960L975 105.562Z" fill="#0D0D4F"/>
<path d="M1005 105.562V75.5621L1020 60.5621V120.562L1005 105.562Z" fill="#0C0C64"/>
<path d="M975 75.5621V105.562L960 120.562V60.5621L975 75.5621Z" fill="#292984"/>
<path d="M1005 75.5621H975L960 60.5621L1020 60.5621L1005 75.5621Z" fill="#1C1C70"/>
<rect x="1019.5" y="60.5621" width="60" height="60" fill="#0B0B9E"/>
<path d="M1034.5 105.562H1064.5L1079.5 120.562H1019.5L1034.5 105.562Z" fill="#0D0D4F"/>
<path d="M1064.5 105.562V75.5621L1079.5 60.5621V120.562L1064.5 105.562Z" fill="#0C0C64"/>
<path d="M1034.5 75.5621V105.562L1019.5 120.562V60.5621L1034.5 75.5621Z" fill="#292984"/>
<path d="M1064.5 75.5621H1034.5L1019.5 60.5621L1079.5 60.5621L1064.5 75.5621Z" fill="#1C1C70"/>
<rect width="60" height="60" transform="matrix(1 0 0 -1 720 120.562)" fill="#0B0B9E"/>
<path d="M735 75.5621H765L780 60.5621H720L735 75.5621Z" fill="#0D0D4F"/>
<path d="M765 75.5621V105.562L780 120.562V60.5621L765 75.5621Z" fill="#0C0C64"/>
<path d="M735 105.562V75.5621L720 60.5621V120.562L735 105.562Z" fill="#292984"/>
<path d="M765 105.562H735L720 120.562H780L765 105.562Z" fill="#1C1C70"/>
<rect width="60" height="60" transform="matrix(1 0 0 -1 720 180.562)" fill="#0B0B9E"/>
<path d="M735 135.562H765L780 120.562H720L735 135.562Z" fill="#0D0D4F"/>
<path d="M765 135.562V165.562L780 180.562V120.562L765 135.562Z" fill="#0C0C64"/>
<path d="M735 165.562V135.562L720 120.562V180.562L735 165.562Z" fill="#292984"/>
<path d="M765 165.562H735L720 180.562H780L765 165.562Z" fill="#1C1C70"/>
<rect width="60" height="60" transform="matrix(1 0 0 -1 780 180.562)" fill="#0B0B9E"/>
<path d="M795 135.562H825L840 120.562H780L795 135.562Z" fill="#0D0D4F"/>
<path d="M825 135.562V165.562L840 180.562V120.562L825 135.562Z" fill="#0C0C64"/>
<path d="M795 165.562V135.562L780 120.562V180.562L795 165.562Z" fill="#292984"/>
<path d="M825 165.562H795L780 180.562H840L825 165.562Z" fill="#1C1C70"/>
<rect width="60" height="60" transform="matrix(1 0 0 -1 720 240.562)" fill="#0B0B9E"/>
<path d="M735 195.562H765L780 180.562H720L735 195.562Z" fill="#0D0D4F"/>
<path d="M765 195.562V225.562L780 240.562V180.562L765 195.562Z" fill="#0C0C64"/>
<path d="M735 225.562V195.562L720 180.562V240.562L735 225.562Z" fill="#292984"/>
<path d="M765 225.562H735L720 240.562H780L765 225.562Z" fill="#1C1C70"/>
<rect x="900" y="180.562" width="60" height="60" fill="#0F930F"/>
<path d="M915 225.562H945L960 240.562H900L915 225.562Z" fill="#126612"/>
<path d="M945 225.562V195.562L960 180.562V240.562L945 225.562Z" fill="#075507"/>
<path d="M915 195.562V225.562L900 240.562V180.562L915 195.562Z" fill="#237623"/>
<path d="M945 195.562H915L900 180.562H960L945 195.562Z" fill="#42CA42"/>
<rect x="840" y="180.562" width="60" height="60" fill="#0F930F"/>
<path d="M855 225.562H885L900 240.562H840L855 225.562Z" fill="#126612"/>
<path d="M885 225.562V195.562L900 180.562V240.562L885 225.562Z" fill="#075507"/>
<path d="M855 195.562V225.562L840 240.562V180.562L855 195.562Z" fill="#237623"/>
<path d="M885 195.562H855L840 180.562H900L885 195.562Z" fill="#42CA42"/>
<rect x="780" y="180.562" width="60" height="60" fill="#0F930F"/>
<path d="M795 225.562H825L840 240.562H780L795 225.562Z" fill="#126612"/>
<path d="M825 225.562V195.562L840 180.562V240.562L825 225.562Z" fill="#075507"/>
<path d="M795 195.562V225.562L780 240.562V180.562L795 195.562Z" fill="#237623"/>
<path d="M825 195.562H795L780 180.562H840L825 195.562Z" fill="#42CA42"/>
<rect x="840" y="120.562" width="60" height="60" fill="#0F930F"/>
<path d="M855 165.562H885L900 180.562H840L855 165.562Z" fill="#126612"/>
<path d="M885 165.562V135.562L900 120.562V180.562L885 165.562Z" fill="#075507"/>
<path d="M855 135.562V165.562L840 180.562V120.562L855 135.562Z" fill="#237623"/>
<path d="M885 135.562H855L840 120.562H900L885 135.562Z" fill="#42CA42"/>
<rect x="660" y="180.562" width="60" height="60" fill="#970D0D"/>
<path d="M675 225.562H705L720 240.562H660L675 225.562Z" fill="#580404"/>
<path d="M705 225.562V195.562L720 180.562V240.562L705 225.562Z" fill="#690B0B"/>
<path d="M675 195.562V225.562L660 240.562V180.562L675 195.562Z" fill="#6C2E2E"/>
<path d="M705 195.562H675L660 180.562H720L705 195.562Z" fill="#8E2B2B"/>
<rect x="600" y="180.562" width="60" height="60" fill="#970D0D"/>
<path d="M615 225.562H645L660 240.562H600L615 225.562Z" fill="#580404"/>
<path d="M645 225.562V195.562L660 180.562V240.562L645 225.562Z" fill="#690B0B"/>
<path d="M615 195.562V225.562L600 240.562V180.562L615 195.562Z" fill="#6C2E2E"/>
<path d="M645 195.562H615L600 180.562H660L645 195.562Z" fill="#8E2B2B"/>
<rect x="540" y="180.562" width="60" height="60" fill="#970D0D"/>
<path d="M555 225.562H585L600 240.562H540L555 225.562Z" fill="#580404"/>
<path d="M585 225.562V195.562L600 180.562V240.562L585 225.562Z" fill="#690B0B"/>
<path d="M555 195.562V225.562L540 240.562V180.562L555 195.562Z" fill="#6C2E2E"/>
<path d="M585 195.562H555L540 180.562H600L585 195.562Z" fill="#8E2B2B"/>
<rect x="480" y="180.562" width="60" height="60" fill="#970D0D"/>
<path d="M495 225.562H525L540 240.562H480L495 225.562Z" fill="#580404"/>
<path d="M525 225.562V195.562L540 180.562V240.562L525 225.562Z" fill="#690B0B"/>
<path d="M495 195.562V225.562L480 240.562V180.562L495 195.562Z" fill="#6C2E2E"/>
<path d="M525 195.562H495L480 180.562H540L525 195.562Z" fill="#8E2B2B"/>
<rect x="660" y="120.562" width="60" height="60" fill="#045E5E"/>
<path d="M675 165.562H705L720 180.562H660L675 165.562Z" fill="#083434"/>
<path d="M705 165.562V135.562L720 120.562V180.562L705 165.562Z" fill="#076666"/>
<path d="M675 135.562V165.562L660 180.562V120.562L675 135.562Z" fill="#478787"/>
<path d="M705 135.562H675L660 120.562H720L705 135.562Z" fill="#247575"/>
<rect x="660" y="60.5621" width="60" height="60" fill="#045E5E"/>
<path d="M675 105.562H705L720 120.562H660L675 105.562Z" fill="#083434"/>
<path d="M705 105.562V75.5621L720 60.5621V120.562L705 105.562Z" fill="#076666"/>
<path d="M675 75.5621V105.562L660 120.562V60.5621L675 75.5621Z" fill="#478787"/>
<path d="M705 75.5621H675L660 60.5621L720 60.5621L705 75.5621Z" fill="#247575"/>
<rect x="660" y="0.562134" width="60" height="60" fill="#045E5E"/>
<path d="M675 45.5621H705L720 60.5621H660L675 45.5621Z" fill="#083434"/>
<path d="M705 45.5621V15.5621L720 0.56213V60.5621L705 45.5621Z" fill="#076666"/>
<path d="M675 15.5621V45.5621L660 60.5621V0.562134L675 15.5621Z" fill="#478787"/>
<path d="M705 15.5621L675 15.5621L660 0.562134L720 0.562134L705 15.5621Z" fill="#247575"/>
<rect x="600" y="120.562" width="60" height="60" fill="#045E5E"/>
<path d="M615 165.562H645L660 180.562H600L615 165.562Z" fill="#083434"/>
<path d="M645 165.562V135.562L660 120.562V180.562L645 165.562Z" fill="#076666"/>
<path d="M615 135.562V165.562L600 180.562V120.562L615 135.562Z" fill="#478787"/>
<path d="M645 135.562H615L600 120.562H660L645 135.562Z" fill="#247575"/>
<rect x="420" y="180.562" width="60" height="60" fill="#A4A409"/>
<path d="M435 225.562H465L480 240.562H420L435 225.562Z" fill="#3F3F13"/>
<path d="M465 225.562V195.562L480 180.562V240.562L465 225.562Z" fill="#50500B"/>
<path d="M435 195.562V225.562L420 240.562V180.562L435 195.562Z" fill="#8D8D40"/>
<path d="M465 195.562H435L420 180.562H480L465 195.562Z" fill="#7E7E25"/>
<rect x="420" y="120.562" width="60" height="60" fill="#A4A409"/>
<path d="M435 165.562H465L480 180.562H420L435 165.562Z" fill="#3F3F13"/>
<path d="M465 165.562V135.562L480 120.562V180.562L465 165.562Z" fill="#50500B"/>
<path d="M435 135.562V165.562L420 180.562V120.562L435 135.562Z" fill="#8D8D40"/>
<path d="M465 135.562H435L420 120.562H480L465 135.562Z" fill="#7E7E25"/>
<rect x="420" y="60.5621" width="60" height="60" fill="#A4A409"/>
<path d="M435 105.562H465L480 120.562H420L435 105.562Z" fill="#3F3F13"/>
<path d="M465 105.562V75.5621L480 60.5621V120.562L465 105.562Z" fill="#50500B"/>
<path d="M435 75.5621V105.562L420 120.562V60.5621L435 75.5621Z" fill="#8D8D40"/>
<path d="M465 75.5621H435L420 60.5621L480 60.5621L465 75.5621Z" fill="#7E7E25"/>
<rect x="480" y="120.562" width="60" height="60" fill="#A4A409"/>
<path d="M495 165.562H525L540 180.562H480L495 165.562Z" fill="#3F3F13"/>
<path d="M525 165.562V135.562L540 120.562V180.562L525 165.562Z" fill="#50500B"/>
<path d="M495 135.562V165.562L480 180.562V120.562L495 135.562Z" fill="#8D8D40"/>
<path d="M525 135.562H495L480 120.562H540L525 135.562Z" fill="#7E7E25"/>
<rect x="360" y="180.562" width="60" height="60" fill="#690969"/>
<path d="M375 225.562H405L420 240.562H360L375 225.562Z" fill="#460E46"/>
<path d="M405 225.562V195.562L420 180.562V240.562L405 225.562Z" fill="#580658"/>
<path d="M375 195.562V225.562L360 240.562V180.562L375 195.562Z" fill="#791F79"/>
<path d="M405 195.562H375L360 180.562H420L405 195.562Z" fill="#972F97"/>
<rect x="360" y="120.562" width="60" height="60" fill="#690969"/>
<path d="M375 165.562H405L420 180.562H360L375 165.562Z" fill="#460E46"/>
<path d="M405 165.562V135.562L420 120.562V180.562L405 165.562Z" fill="#580658"/>
<path d="M375 135.562V165.562L360 180.562V120.562L375 135.562Z" fill="#791F79"/>
<path d="M405 135.562H375L360 120.562H420L405 135.562Z" fill="#972F97"/>
<rect x="300" y="180.562" width="60" height="60" fill="#690969"/>
<path d="M315 225.562H345L360 240.562H300L315 225.562Z" fill="#460E46"/>
<path d="M345 225.562V195.562L360 180.562V240.562L345 225.562Z" fill="#580658"/>
<path d="M315 195.562V225.562L300 240.562V180.562L315 195.562Z" fill="#791F79"/>
<path d="M345 195.562H315L300 180.562H360L345 195.562Z" fill="#972F97"/>
<rect x="300" y="120.562" width="60" height="60" fill="#690969"/>
<path d="M315 165.562H345L360 180.562H300L315 165.562Z" fill="#460E46"/>
<path d="M345 165.562V135.562L360 120.562V180.562L345 165.562Z" fill="#580658"/>
<path d="M315 135.562V165.562L300 180.562V120.562L315 135.562Z" fill="#791F79"/>
<path d="M345 135.562H315L300 120.562H360L345 135.562Z" fill="#972F97"/>
<rect y="180.562" width="60" height="60" fill="#690969"/>
<path d="M15 225.562H45L60 240.562H0L15 225.562Z" fill="#460E46"/>
<path d="M45 225.562V195.562L60 180.562V240.562L45 225.562Z" fill="#580658"/>
<path d="M15 195.562L15 225.562L0 240.562L0 180.562L15 195.562Z" fill="#791F79"/>
<path d="M45 195.562H15L-3.8147e-06 180.562H60L45 195.562Z" fill="#972F97"/>
<rect y="120.562" width="60" height="60" fill="#690969"/>
<path d="M15 165.562H45L60 180.562H0L15 165.562Z" fill="#460E46"/>
<path d="M45 165.562V135.562L60 120.562V180.562L45 165.562Z" fill="#580658"/>
<path d="M15 135.562L15 165.562L0 180.562L0 120.562L15 135.562Z" fill="#791F79"/>
<path d="M45 135.562H15L-3.8147e-06 120.562H60L45 135.562Z" fill="#972F97"/>
<rect x="60" y="120.562" width="60" height="60" fill="#690969"/>
<path d="M75 165.562H105L120 180.562H60L75 165.562Z" fill="#460E46"/>
<path d="M105 165.562V135.562L120 120.562V180.562L105 165.562Z" fill="#580658"/>
<path d="M75 135.562V165.562L60 180.562V120.562L75 135.562Z" fill="#791F79"/>
<path d="M105 135.562H75L60 120.562H120L105 135.562Z" fill="#972F97"/>
<rect x="60" y="60.5621" width="60" height="60" fill="#690969"/>
<path d="M75 105.562H105L120 120.562H60L75 105.562Z" fill="#460E46"/>
<path d="M105 105.562V75.5621L120 60.5621V120.562L105 105.562Z" fill="#580658"/>
<path d="M75 75.5621V105.562L60 120.562V60.5621L75 75.5621Z" fill="#791F79"/>
<path d="M105 75.5621H75L60 60.5621L120 60.5621L105 75.5621Z" fill="#972F97"/>
<rect x="240" y="180.562" width="60" height="60" fill="#0B0B9E"/>
<path d="M255 225.562H285L300 240.562H240L255 225.562Z" fill="#0D0D4F"/>
<path d="M285 225.562V195.562L300 180.562V240.562L285 225.562Z" fill="#0C0C64"/>
<path d="M255 195.562V225.562L240 240.562V180.562L255 195.562Z" fill="#292984"/>
<path d="M285 195.562H255L240 180.562H300L285 195.562Z" fill="#1C1C70"/>
<rect x="240" y="120.562" width="60" height="60" fill="#0B0B9E"/>
<path d="M255 165.562H285L300 180.562H240L255 165.562Z" fill="#0D0D4F"/>
<path d="M285 165.562V135.562L300 120.562V180.562L285 165.562Z" fill="#0C0C64"/>
<path d="M255 135.562V165.562L240 180.562V120.562L255 135.562Z" fill="#292984"/>
<path d="M285 135.562H255L240 120.562H300L285 135.562Z" fill="#1C1C70"/>
<rect x="240" y="60.5621" width="60" height="60" fill="#0B0B9E"/>
<path d="M255 105.562H285L300 120.562H240L255 105.562Z" fill="#0D0D4F"/>
<path d="M285 105.562V75.5621L300 60.5621V120.562L285 105.562Z" fill="#0C0C64"/>
<path d="M255 75.5621V105.562L240 120.562V60.5621L255 75.5621Z" fill="#292984"/>
<path d="M285 75.5621H255L240 60.5621L300 60.5621L285 75.5621Z" fill="#1C1C70"/>
<rect x="299.5" y="60.5621" width="60" height="60" fill="#0B0B9E"/>
<path d="M314.5 105.562H344.5L359.5 120.562H299.5L314.5 105.562Z" fill="#0D0D4F"/>
<path d="M344.5 105.562V75.5621L359.5 60.5621V120.562L344.5 105.562Z" fill="#0C0C64"/>
<path d="M314.5 75.5621V105.562L299.5 120.562V60.5621L314.5 75.5621Z" fill="#292984"/>
<path d="M344.5 75.5621H314.5L299.5 60.5621L359.5 60.5621L344.5 75.5621Z" fill="#1C1C70"/>
<rect x="540" y="120.562" width="60" height="60" fill="#0B0B9E"/>
<path d="M555 165.562H585L600 180.562H540L555 165.562Z" fill="#0D0D4F"/>
<path d="M585 165.562V135.562L600 120.562V180.562L585 165.562Z" fill="#0C0C64"/>
<path d="M555 135.562V165.562L540 180.562V120.562L555 135.562Z" fill="#292984"/>
<path d="M585 135.562H555L540 120.562H600L585 135.562Z" fill="#1C1C70"/>
<rect x="540" y="60.5621" width="60" height="60" fill="#0B0B9E"/>
<path d="M555 105.562H585L600 120.562H540L555 105.562Z" fill="#0D0D4F"/>
<path d="M585 105.562V75.5621L600 60.5621V120.562L585 105.562Z" fill="#0C0C64"/>
<path d="M555 75.5621V105.562L540 120.562V60.5621L555 75.5621Z" fill="#292984"/>
<path d="M585 75.5621H555L540 60.5621L600 60.5621L585 75.5621Z" fill="#1C1C70"/>
<rect x="600" y="60.5621" width="60" height="60" fill="#0B0B9E"/>
<path d="M615 105.562H645L660 120.562H600L615 105.562Z" fill="#0D0D4F"/>
<path d="M645 105.562V75.5621L660 60.5621V120.562L645 105.562Z" fill="#0C0C64"/>
<path d="M615 75.5621V105.562L600 120.562V60.5621L615 75.5621Z" fill="#292984"/>
<path d="M645 75.5621H615L600 60.5621L660 60.5621L645 75.5621Z" fill="#1C1C70"/>
<rect x="540" y="0.562134" width="60" height="60" fill="#0B0B9E"/>
<path d="M555 45.5621H585L600 60.5621H540L555 45.5621Z" fill="#0D0D4F"/>
<path d="M585 45.5621V15.5621L600 0.56213V60.5621L585 45.5621Z" fill="#0C0C64"/>
<path d="M555 15.5621V45.5621L540 60.5621V0.562134L555 15.5621Z" fill="#292984"/>
<path d="M585 15.5621L555 15.5621L540 0.562134L600 0.562134L585 15.5621Z" fill="#1C1C70"/>
<rect x="180" y="180.562" width="60" height="60" fill="#0F930F"/>
<path d="M195 225.562H225L240 240.562H180L195 225.562Z" fill="#126612"/>
<path d="M225 225.562V195.562L240 180.562V240.562L225 225.562Z" fill="#075507"/>
<path d="M195 195.562V225.562L180 240.562V180.562L195 195.562Z" fill="#237623"/>
<path d="M225 195.562H195L180 180.562H240L225 195.562Z" fill="#42CA42"/>
<rect x="120" y="180.562" width="60" height="60" fill="#0F930F"/>
<path d="M135 225.562H165L180 240.562H120L135 225.562Z" fill="#126612"/>
<path d="M165 225.562V195.562L180 180.562V240.562L165 225.562Z" fill="#075507"/>
<path d="M135 195.562V225.562L120 240.562V180.562L135 195.562Z" fill="#237623"/>
<path d="M165 195.562H135L120 180.562H180L165 195.562Z" fill="#42CA42"/>
<rect x="60" y="180.562" width="60" height="60" fill="#0F930F"/>
<path d="M75 225.562H105L120 240.562H60L75 225.562Z" fill="#126612"/>
<path d="M105 225.562V195.562L120 180.562V240.562L105 225.562Z" fill="#075507"/>
<path d="M75 195.562V225.562L60 240.562V180.562L75 195.562Z" fill="#237623"/>
<path d="M105 195.562H75L60 180.562H120L105 195.562Z" fill="#42CA42"/>
<rect x="120" y="120.562" width="60" height="60" fill="#0F930F"/>
<path d="M135 165.562H165L180 180.562H120L135 165.562Z" fill="#126612"/>
<path d="M165 165.562V135.562L180 120.562V180.562L165 165.562Z" fill="#075507"/>
<path d="M135 135.562V165.562L120 180.562V120.562L135 135.562Z" fill="#237623"/>
<path d="M165 135.562H135L120 120.562H180L165 135.562Z" fill="#42CA42"/>
</g>
</svg>
