<svg width="50" height="53" viewBox="0 0 50 53" fill="none" xmlns="http://www.w3.org/2000/svg">
<path fill-rule="evenodd" clip-rule="evenodd" d="M4.16669 25.2094C4.16669 13.7034 13.4941 4.37604 25 4.37604C36.506 4.37604 45.8334 13.7034 45.8334 25.2094V27.3033C45.8334 33.9725 42.6997 39.9097 37.8244 43.7229C36.9826 41.0435 35.3896 38.6775 33.237 36.9428C30.8799 35.0432 27.9847 34.0085 25 34.0085C22.0154 34.0085 19.1202 35.0431 16.763 36.9428C14.6105 38.6775 13.0175 41.0435 12.1756 43.7229C7.30038 39.9097 4.16669 33.9725 4.16669 27.3033V25.2094ZM31.9821 38.5C33.9802 40.1103 35.4278 42.3712 36.0935 44.9407C32.8813 46.9653 29.0775 48.1367 25 48.1367C20.9226 48.1367 17.1187 46.9653 13.9066 44.9407C14.5723 42.3711 16.0198 40.1103 18.018 38.5C20.0269 36.881 22.4813 36.0085 25 36.0085C27.5187 36.0085 29.9731 36.881 31.9821 38.5ZM19.75 19.6923C19.75 16.5725 22.1462 14.1282 25 14.1282C27.8539 14.1282 30.25 16.5725 30.25 19.6923C30.25 22.812 27.8539 25.2564 25 25.2564C22.1462 25.2564 19.75 22.812 19.75 19.6923ZM25 12.1282C20.9503 12.1282 17.75 15.5615 17.75 19.6923C17.75 23.823 20.9503 27.2564 25 27.2564C29.0497 27.2564 32.25 23.823 32.25 19.6923C32.25 15.5615 29.0497 12.1282 25 12.1282Z" fill="#222222"/>
<rect x="4.66669" y="4.87604" width="40.6667" height="42.7606" rx="20.3333" stroke="#222222"/>
</svg>
