<svg width="50" height="53" viewBox="0 0 50 53" fill="none" xmlns="http://www.w3.org/2000/svg">
<path fill-rule="evenodd" clip-rule="evenodd" d="M4.16669 25.2094C4.16669 13.7034 13.4941 4.37604 25 4.37604C36.506 4.37604 45.8334 13.7034 45.8334 25.2094V27.3033C45.8334 33.9725 42.6997 39.9097 37.8244 43.7229C36.9826 41.0435 35.3896 38.6775 33.237 36.9428C30.8799 35.0432 27.9847 34.0085 25 34.0085C22.0154 34.0085 19.1202 35.0431 16.763 36.9428C14.6105 38.6775 13.0175 41.0435 12.1756 43.7229C7.30038 39.9097 4.16669 33.9725 4.16669 27.3033V25.2094ZM31.9821 38.5C33.9802 40.1103 35.4278 42.3712 36.0935 44.9407C32.8813 46.9653 29.0775 48.1367 25 48.1367C20.9226 48.1367 17.1187 46.9653 13.9066 44.9407C14.5723 42.3712 16.0198 40.1103 18.018 38.5C20.0269 36.881 22.4813 36.0085 25 36.0085C27.5187 36.0085 29.9731 36.881 31.9821 38.5ZM19.75 19.6923C19.75 16.5725 22.1462 14.1282 25 14.1282C27.8539 14.1282 30.25 16.5725 30.25 19.6923C30.25 22.812 27.8539 25.2564 25 25.2564C22.1462 25.2564 19.75 22.812 19.75 19.6923ZM25 12.1282C20.9503 12.1282 17.75 15.5615 17.75 19.6923C17.75 23.823 20.9503 27.2564 25 27.2564C29.0497 27.2564 32.25 23.823 32.25 19.6923C32.25 15.5615 29.0497 12.1282 25 12.1282Z" fill="#222222"/>
<rect x="4.66669" y="4.87604" width="40.6667" height="42.7606" rx="20.3333" stroke="#222222"/>
<path d="M18.2302 29V26.2727H18.6492V29H18.2302ZM18.4433 25.8182C18.3616 25.8182 18.2912 25.7904 18.232 25.7347C18.174 25.6791 18.145 25.6122 18.145 25.5341C18.145 25.456 18.174 25.3891 18.232 25.3335C18.2912 25.2778 18.3616 25.25 18.4433 25.25C18.5249 25.25 18.5948 25.2778 18.6528 25.3335C18.712 25.3891 18.7416 25.456 18.7416 25.5341C18.7416 25.6122 18.712 25.6791 18.6528 25.7347C18.5948 25.7904 18.5249 25.8182 18.4433 25.8182ZM19.4167 29V26.2727H19.8216V26.6989H19.8571C19.9139 26.5533 20.0056 26.4402 20.1323 26.3597C20.2589 26.2781 20.411 26.2372 20.5886 26.2372C20.7685 26.2372 20.9183 26.2781 21.0378 26.3597C21.1586 26.4402 21.2527 26.5533 21.3201 26.6989H21.3485C21.4184 26.558 21.5231 26.4461 21.6628 26.3633C21.8025 26.2792 21.97 26.2372 22.1653 26.2372C22.4092 26.2372 22.6086 26.3136 22.7637 26.4663C22.9187 26.6178 22.9963 26.8539 22.9963 27.1747V29H22.5772V27.1747C22.5772 26.9735 22.5222 26.8297 22.4121 26.7433C22.302 26.6568 22.1724 26.6136 22.0233 26.6136C21.8315 26.6136 21.6829 26.6716 21.5776 26.7876C21.4722 26.9025 21.4196 27.0481 21.4196 27.2244V29H20.9934V27.1321C20.9934 26.977 20.9431 26.8522 20.8425 26.7575C20.7419 26.6616 20.6123 26.6136 20.4537 26.6136C20.3448 26.6136 20.243 26.6426 20.1483 26.7006C20.0547 26.7586 19.979 26.8391 19.921 26.9421C19.8642 27.0439 19.8358 27.1617 19.8358 27.2955V29H19.4167ZM24.565 29.0639C24.3922 29.0639 24.2353 29.0314 24.0945 28.9663C23.9536 28.9 23.8417 28.8047 23.7589 28.6804C23.676 28.5549 23.6346 28.4034 23.6346 28.2259C23.6346 28.0696 23.6654 27.9429 23.7269 27.8459C23.7885 27.7476 23.8707 27.6707 23.9737 27.6151C24.0767 27.5594 24.1903 27.518 24.3146 27.4908C24.4401 27.4624 24.5662 27.4399 24.6928 27.4233C24.8585 27.402 24.9929 27.386 25.0959 27.3754C25.2 27.3635 25.2758 27.344 25.3232 27.3168C25.3717 27.2895 25.396 27.2422 25.396 27.1747V27.1605C25.396 26.9853 25.348 26.8492 25.2521 26.7521C25.1574 26.6551 25.0136 26.6065 24.8207 26.6065C24.6206 26.6065 24.4638 26.6503 24.3501 26.7379C24.2365 26.8255 24.1566 26.919 24.1104 27.0185L23.7127 26.8764C23.7837 26.7107 23.8784 26.5817 23.9968 26.4893C24.1164 26.3958 24.2466 26.3307 24.3874 26.294C24.5295 26.2562 24.6692 26.2372 24.8065 26.2372C24.8941 26.2372 24.9947 26.2479 25.1083 26.2692C25.2231 26.2893 25.3338 26.3313 25.4403 26.3952C25.5481 26.4592 25.6374 26.5556 25.7085 26.6847C25.7795 26.8137 25.815 26.9865 25.815 27.2031V29H25.396V28.6307H25.3746C25.3462 28.6899 25.2989 28.7532 25.2326 28.8207C25.1663 28.8881 25.0781 28.9455 24.968 28.9929C24.858 29.0402 24.7236 29.0639 24.565 29.0639ZM24.6289 28.6875C24.7946 28.6875 24.9343 28.6549 25.0479 28.5898C25.1628 28.5247 25.2492 28.4407 25.3072 28.3377C25.3664 28.2347 25.396 28.1264 25.396 28.0128V27.6293C25.3782 27.6506 25.3391 27.6701 25.2788 27.6879C25.2196 27.7044 25.1509 27.7192 25.0728 27.7322C24.9959 27.7441 24.9207 27.7547 24.8473 27.7642C24.7751 27.7725 24.7165 27.7796 24.6715 27.7855C24.5626 27.7997 24.4608 27.8228 24.3661 27.8548C24.2726 27.8855 24.1969 27.9323 24.1388 27.995C24.082 28.0566 24.0536 28.1406 24.0536 28.2472C24.0536 28.3928 24.1075 28.5028 24.2152 28.5774C24.3241 28.6508 24.462 28.6875 24.6289 28.6875ZM27.6807 30.0795C27.4782 30.0795 27.3042 30.0535 27.1586 30.0014C27.0131 29.9505 26.8917 29.883 26.7947 29.799C26.6988 29.7161 26.6224 29.6274 26.5656 29.5327L26.8994 29.2983C26.9373 29.348 26.9852 29.4048 27.0432 29.4688C27.1012 29.5339 27.1805 29.5901 27.2812 29.6374C27.383 29.686 27.5161 29.7102 27.6807 29.7102C27.9008 29.7102 28.0825 29.657 28.2258 29.5504C28.369 29.4439 28.4406 29.277 28.4406 29.0497V28.4957H28.4051C28.3743 28.5455 28.3305 28.607 28.2737 28.6804C28.2181 28.7526 28.1376 28.8171 28.0322 28.8739C27.9281 28.9296 27.7872 28.9574 27.6096 28.9574C27.3895 28.9574 27.1918 28.9053 27.0166 28.8011C26.8426 28.697 26.7047 28.5455 26.6029 28.3466C26.5023 28.1477 26.452 27.9062 26.452 27.6222C26.452 27.3428 26.5011 27.0996 26.5993 26.8924C26.6976 26.6841 26.8343 26.5231 27.0095 26.4094C27.1847 26.2946 27.3871 26.2372 27.6167 26.2372C27.7943 26.2372 27.9352 26.2668 28.0393 26.326C28.1447 26.384 28.2252 26.4503 28.2808 26.5249C28.3376 26.5982 28.3814 26.6586 28.4122 26.706H28.4548V26.2727H28.8596V29.0781C28.8596 29.3125 28.8064 29.5031 28.6998 29.6499C28.5945 29.7978 28.4524 29.9061 28.2737 29.9748C28.0961 30.0446 27.8985 30.0795 27.6807 30.0795ZM27.6665 28.581C27.8345 28.581 27.9766 28.5425 28.0926 28.4656C28.2086 28.3886 28.2968 28.2779 28.3572 28.1335C28.4175 27.9891 28.4477 27.8163 28.4477 27.6151C28.4477 27.4186 28.4181 27.2451 28.3589 27.0948C28.2997 26.9445 28.2122 26.8267 28.0961 26.7415C27.9801 26.6562 27.8369 26.6136 27.6665 26.6136C27.4889 26.6136 27.3409 26.6586 27.2226 26.7486C27.1054 26.8385 27.0172 26.9593 26.958 27.1108C26.9 27.2623 26.871 27.4304 26.871 27.6151C26.871 27.8045 26.9006 27.9719 26.9598 28.1175C27.0202 28.262 27.1089 28.3756 27.2261 28.4585C27.3445 28.5401 27.4913 28.581 27.6665 28.581ZM30.7702 29.0568C30.5074 29.0568 30.2807 28.9988 30.0901 28.8828C29.9007 28.7656 29.7545 28.6023 29.6515 28.3928C29.5497 28.1821 29.4988 27.937 29.4988 27.6577C29.4988 27.3783 29.5497 27.1321 29.6515 26.919C29.7545 26.7048 29.8978 26.5379 30.0812 26.4183C30.2659 26.2976 30.4813 26.2372 30.7275 26.2372C30.8696 26.2372 31.0099 26.2609 31.1483 26.3082C31.2868 26.3556 31.4129 26.4325 31.5265 26.5391C31.6402 26.6444 31.7307 26.7841 31.7982 26.9581C31.8657 27.1321 31.8994 27.3464 31.8994 27.6009V27.7784H29.7971V27.4162H31.4733C31.4733 27.2623 31.4425 27.125 31.3809 27.0043C31.3206 26.8835 31.2342 26.7882 31.1217 26.7184C31.0104 26.6486 30.8791 26.6136 30.7275 26.6136C30.5606 26.6136 30.4162 26.6551 30.2943 26.7379C30.1736 26.8196 30.0806 26.9261 30.0155 27.0575C29.9504 27.1889 29.9179 27.3298 29.9179 27.4801V27.7216C29.9179 27.9276 29.9534 28.1022 30.0244 28.2454C30.0966 28.3874 30.1966 28.4957 30.3245 28.5703C30.4523 28.6437 30.6009 28.6804 30.7702 28.6804C30.8802 28.6804 30.9797 28.665 31.0684 28.6342C31.1584 28.6023 31.2359 28.5549 31.301 28.4922C31.3662 28.4283 31.4165 28.349 31.452 28.2543L31.8568 28.3679C31.8142 28.5052 31.7426 28.6259 31.642 28.7301C31.5413 28.8331 31.4171 28.9136 31.2691 28.9716C31.1211 29.0284 30.9548 29.0568 30.7702 29.0568ZM11.5066 36.0227V32.2727H11.9114V32.706H11.9611C11.9919 32.6586 12.0345 32.5982 12.089 32.5249C12.1446 32.4503 12.2239 32.384 12.3269 32.326C12.431 32.2668 12.5719 32.2372 12.7495 32.2372C12.9791 32.2372 13.1815 32.2946 13.3567 32.4094C13.5319 32.5243 13.6686 32.687 13.7669 32.8977C13.8651 33.1084 13.9142 33.357 13.9142 33.6435C13.9142 33.9323 13.8651 34.1826 13.7669 34.3945C13.6686 34.6052 13.5325 34.7686 13.3585 34.8846C13.1845 34.9994 12.9838 35.0568 12.7566 35.0568C12.5814 35.0568 12.4411 35.0278 12.3358 34.9698C12.2304 34.9106 12.1493 34.8437 12.0925 34.7692C12.0357 34.6934 11.9919 34.6307 11.9611 34.581H11.9256V36.0227H11.5066ZM11.9185 33.6364C11.9185 33.8423 11.9487 34.024 12.0091 34.1815C12.0694 34.3377 12.1576 34.4602 12.2736 34.549C12.3896 34.6366 12.5317 34.6804 12.6998 34.6804C12.8749 34.6804 13.0211 34.6342 13.1383 34.5419C13.2567 34.4484 13.3455 34.3229 13.4047 34.1655C13.465 34.0069 13.4952 33.8305 13.4952 33.6364C13.4952 33.4446 13.4656 33.2718 13.4064 33.1179C13.3484 32.9628 13.2602 32.8403 13.1419 32.7504C13.0247 32.6592 12.8773 32.6136 12.6998 32.6136C12.5293 32.6136 12.3861 32.6568 12.2701 32.7433C12.1541 32.8285 12.0665 32.948 12.0073 33.1019C11.9481 33.2546 11.9185 33.4328 11.9185 33.6364ZM14.9725 31.3636V35H14.5534V31.3636H14.9725ZM16.5425 35.0639C16.3697 35.0639 16.2129 35.0314 16.072 34.9663C15.9311 34.9 15.8193 34.8047 15.7364 34.6804C15.6536 34.5549 15.6121 34.4034 15.6121 34.2259C15.6121 34.0696 15.6429 33.9429 15.7045 33.8459C15.766 33.7476 15.8483 33.6707 15.9513 33.6151C16.0542 33.5594 16.1679 33.518 16.2922 33.4908C16.4176 33.4624 16.5437 33.4399 16.6704 33.4233C16.8361 33.402 16.9704 33.386 17.0734 33.3754C17.1776 33.3635 17.2533 33.344 17.3007 33.3168C17.3492 33.2895 17.3735 33.2422 17.3735 33.1747V33.1605C17.3735 32.9853 17.3256 32.8492 17.2297 32.7521C17.135 32.6551 16.9912 32.6065 16.7982 32.6065C16.5982 32.6065 16.4413 32.6503 16.3277 32.7379C16.214 32.8255 16.1341 32.919 16.088 33.0185L15.6903 32.8764C15.7613 32.7107 15.856 32.5817 15.9743 32.4893C16.0939 32.3958 16.2241 32.3307 16.365 32.294C16.507 32.2562 16.6467 32.2372 16.784 32.2372C16.8716 32.2372 16.9722 32.2479 17.0858 32.2692C17.2007 32.2893 17.3113 32.3313 17.4179 32.3952C17.5256 32.4592 17.615 32.5556 17.686 32.6847C17.757 32.8137 17.7925 32.9865 17.7925 33.2031V35H17.3735V34.6307H17.3522C17.3238 34.6899 17.2764 34.7532 17.2101 34.8207C17.1439 34.8881 17.0557 34.9455 16.9456 34.9929C16.8355 35.0402 16.7011 35.0639 16.5425 35.0639ZM16.6064 34.6875C16.7722 34.6875 16.9118 34.6549 17.0255 34.5898C17.1403 34.5247 17.2267 34.4407 17.2847 34.3377C17.3439 34.2347 17.3735 34.1264 17.3735 34.0128V33.6293C17.3557 33.6506 17.3167 33.6701 17.2563 33.6879C17.1971 33.7044 17.1285 33.7192 17.0503 33.7322C16.9734 33.7441 16.8982 33.7547 16.8248 33.7642C16.7526 33.7725 16.694 33.7796 16.6491 33.7855C16.5402 33.7997 16.4384 33.8228 16.3437 33.8548C16.2501 33.8855 16.1744 33.9323 16.1164 33.995C16.0596 34.0566 16.0312 34.1406 16.0312 34.2472C16.0312 34.3928 16.085 34.5028 16.1927 34.5774C16.3016 34.6508 16.4395 34.6875 16.6064 34.6875ZM19.6653 35.0568C19.4096 35.0568 19.1895 34.9964 19.0048 34.8757C18.8201 34.755 18.6781 34.5887 18.5787 34.3768C18.4792 34.1649 18.4295 33.9228 18.4295 33.6506C18.4295 33.3736 18.4804 33.1291 18.5822 32.9173C18.6852 32.7042 18.8284 32.5379 19.0119 32.4183C19.1966 32.2976 19.412 32.2372 19.6582 32.2372C19.85 32.2372 20.0228 32.2727 20.1767 32.3438C20.3306 32.4148 20.4566 32.5142 20.5549 32.642C20.6531 32.7699 20.7141 32.919 20.7377 33.0895H20.3187C20.2868 32.9652 20.2157 32.8551 20.1056 32.7592C19.9967 32.6622 19.85 32.6136 19.6653 32.6136C19.502 32.6136 19.3587 32.6562 19.2356 32.7415C19.1137 32.8255 19.0184 32.9445 18.9498 33.0984C18.8823 33.2511 18.8485 33.4304 18.8485 33.6364C18.8485 33.8471 18.8817 34.0305 18.948 34.1868C19.0154 34.343 19.1101 34.4644 19.2321 34.5508C19.3552 34.6372 19.4996 34.6804 19.6653 34.6804C19.7742 34.6804 19.873 34.6615 19.9618 34.6236C20.0506 34.5857 20.1258 34.5312 20.1873 34.4602C20.2489 34.3892 20.2927 34.304 20.3187 34.2045H20.7377C20.7141 34.3655 20.6555 34.5105 20.562 34.6396C20.4696 34.7674 20.3471 34.8692 20.1944 34.945C20.0429 35.0195 19.8665 35.0568 19.6653 35.0568ZM22.4938 35.0568C22.231 35.0568 22.0043 34.9988 21.8137 34.8828C21.6243 34.7656 21.4782 34.6023 21.3752 34.3928C21.2734 34.1821 21.2225 33.937 21.2225 33.6577C21.2225 33.3783 21.2734 33.1321 21.3752 32.919C21.4782 32.7048 21.6214 32.5379 21.8049 32.4183C21.9895 32.2976 22.205 32.2372 22.4512 32.2372C22.5932 32.2372 22.7335 32.2609 22.872 32.3082C23.0105 32.3556 23.1365 32.4325 23.2502 32.5391C23.3638 32.6444 23.4544 32.7841 23.5218 32.9581C23.5893 33.1321 23.623 33.3464 23.623 33.6009V33.7784H21.5208V33.4162H23.1969C23.1969 33.2623 23.1661 33.125 23.1046 33.0043C23.0442 32.8835 22.9578 32.7882 22.8453 32.7184C22.7341 32.6486 22.6027 32.6136 22.4512 32.6136C22.2843 32.6136 22.1399 32.6551 22.0179 32.7379C21.8972 32.8196 21.8043 32.9261 21.7392 33.0575C21.6741 33.1889 21.6415 33.3298 21.6415 33.4801V33.7216C21.6415 33.9276 21.677 34.1022 21.748 34.2454C21.8203 34.3874 21.9203 34.4957 22.0481 34.5703C22.176 34.6437 22.3245 34.6804 22.4938 34.6804C22.6039 34.6804 22.7033 34.665 22.7921 34.6342C22.882 34.6023 22.9596 34.5549 23.0247 34.4922C23.0898 34.4283 23.1401 34.349 23.1756 34.2543L23.5804 34.3679C23.5378 34.5052 23.4662 34.6259 23.3656 34.7301C23.265 34.8331 23.1407 34.9136 22.9927 34.9716C22.8448 35.0284 22.6784 35.0568 22.4938 35.0568ZM24.6795 33.3594V35H24.2605V31.3636H24.6795V32.6989H24.715C24.7789 32.558 24.8748 32.4461 25.0027 32.3633C25.1317 32.2792 25.3033 32.2372 25.5176 32.2372C25.7034 32.2372 25.8662 32.2745 26.0059 32.3491C26.1455 32.4225 26.2538 32.5355 26.3308 32.6882C26.4089 32.8397 26.448 33.0327 26.448 33.267V35H26.0289V33.2955C26.0289 33.0788 25.9727 32.9113 25.8603 32.793C25.749 32.6734 25.5945 32.6136 25.3968 32.6136C25.2595 32.6136 25.1364 32.6426 25.0275 32.7006C24.9198 32.7586 24.8346 32.8433 24.7718 32.9545C24.7103 33.0658 24.6795 33.2008 24.6795 33.3594ZM28.3225 35.0568C28.0763 35.0568 27.8603 34.9982 27.6744 34.881C27.4898 34.7638 27.3454 34.5999 27.2412 34.3892C27.1382 34.1785 27.0867 33.9323 27.0867 33.6506C27.0867 33.3665 27.1382 33.1185 27.2412 32.9066C27.3454 32.6947 27.4898 32.5302 27.6744 32.413C27.8603 32.2958 28.0763 32.2372 28.3225 32.2372C28.5687 32.2372 28.7842 32.2958 28.9688 32.413C29.1547 32.5302 29.2991 32.6947 29.4021 32.9066C29.5062 33.1185 29.5583 33.3665 29.5583 33.6506C29.5583 33.9323 29.5062 34.1785 29.4021 34.3892C29.2991 34.5999 29.1547 34.7638 28.9688 34.881C28.7842 34.9982 28.5687 35.0568 28.3225 35.0568ZM28.3225 34.6804C28.5096 34.6804 28.6634 34.6325 28.7842 34.5366C28.9049 34.4407 28.9943 34.3146 29.0523 34.1584C29.1103 34.0021 29.1393 33.8329 29.1393 33.6506C29.1393 33.4683 29.1103 33.2984 29.0523 33.141C28.9943 32.9835 28.9049 32.8563 28.7842 32.7592C28.6634 32.6622 28.5096 32.6136 28.3225 32.6136C28.1355 32.6136 27.9816 32.6622 27.8609 32.7592C27.7401 32.8563 27.6508 32.9835 27.5928 33.141C27.5348 33.2984 27.5058 33.4683 27.5058 33.6506C27.5058 33.8329 27.5348 34.0021 27.5928 34.1584C27.6508 34.3146 27.7401 34.4407 27.8609 34.5366C27.9816 34.6325 28.1355 34.6804 28.3225 34.6804ZM30.617 31.3636V35H30.198V31.3636H30.617ZM32.4143 35.0568C32.1871 35.0568 31.9864 34.9994 31.8124 34.8846C31.6384 34.7686 31.5023 34.6052 31.404 34.3945C31.3058 34.1826 31.2567 33.9323 31.2567 33.6435C31.2567 33.357 31.3058 33.1084 31.404 32.8977C31.5023 32.687 31.639 32.5243 31.8142 32.4094C31.9894 32.2946 32.1918 32.2372 32.4214 32.2372C32.599 32.2372 32.7393 32.2668 32.8422 32.326C32.9464 32.384 33.0257 32.4503 33.0802 32.5249C33.1358 32.5982 33.179 32.6586 33.2098 32.706H33.2453V31.3636H33.6643V35H33.2595V34.581H33.2098C33.179 34.6307 33.1352 34.6934 33.0784 34.7692C33.0216 34.8437 32.9405 34.9106 32.8351 34.9698C32.7298 35.0278 32.5895 35.0568 32.4143 35.0568ZM32.4711 34.6804C32.6392 34.6804 32.7813 34.6366 32.8973 34.549C33.0133 34.4602 33.1015 34.3377 33.1618 34.1815C33.2222 34.024 33.2524 33.8423 33.2524 33.6364C33.2524 33.4328 33.2228 33.2546 33.1636 33.1019C33.1044 32.948 33.0168 32.8285 32.9008 32.7433C32.7848 32.6568 32.6416 32.6136 32.4711 32.6136C32.2936 32.6136 32.1456 32.6592 32.0273 32.7504C31.9101 32.8403 31.8219 32.9628 31.7627 33.1179C31.7047 33.2718 31.6757 33.4446 31.6757 33.6364C31.6757 33.8305 31.7053 34.0069 31.7645 34.1655C31.8248 34.3229 31.9136 34.4484 32.0308 34.5419C32.1492 34.6342 32.296 34.6804 32.4711 34.6804ZM35.6334 35.0568C35.3706 35.0568 35.144 34.9988 34.9534 34.8828C34.764 34.7656 34.6178 34.6023 34.5148 34.3928C34.413 34.1821 34.3621 33.937 34.3621 33.6577C34.3621 33.3783 34.413 33.1321 34.5148 32.919C34.6178 32.7048 34.761 32.5379 34.9445 32.4183C35.1292 32.2976 35.3446 32.2372 35.5908 32.2372C35.7329 32.2372 35.8731 32.2609 36.0116 32.3082C36.1501 32.3556 36.2762 32.4325 36.3898 32.5391C36.5035 32.6444 36.594 32.7841 36.6615 32.9581C36.729 33.1321 36.7627 33.3464 36.7627 33.6009V33.7784H34.6604V33.4162H36.3366C36.3366 33.2623 36.3058 33.125 36.2442 33.0043C36.1839 32.8835 36.0974 32.7882 35.985 32.7184C35.8737 32.6486 35.7423 32.6136 35.5908 32.6136C35.4239 32.6136 35.2795 32.6551 35.1576 32.7379C35.0368 32.8196 34.9439 32.9261 34.8788 33.0575C34.8137 33.1889 34.7812 33.3298 34.7812 33.4801V33.7216C34.7812 33.9276 34.8167 34.1022 34.8877 34.2454C34.9599 34.3874 35.0599 34.4957 35.1878 34.5703C35.3156 34.6437 35.4642 34.6804 35.6334 34.6804C35.7435 34.6804 35.843 34.665 35.9317 34.6342C36.0217 34.6023 36.0992 34.5549 36.1643 34.4922C36.2294 34.4283 36.2797 34.349 36.3153 34.2543L36.7201 34.3679C36.6775 34.5052 36.6059 34.6259 36.5052 34.7301C36.4046 34.8331 36.2803 34.9136 36.1324 34.9716C35.9844 35.0284 35.8181 35.0568 35.6334 35.0568ZM37.4001 35V32.2727H37.805V32.6847H37.8334C37.8831 32.5497 37.973 32.4402 38.1032 32.3562C38.2335 32.2721 38.3802 32.2301 38.5436 32.2301C38.5744 32.2301 38.6128 32.2307 38.659 32.2319C38.7052 32.2331 38.7401 32.2348 38.7638 32.2372V32.6634C38.7496 32.6598 38.717 32.6545 38.6661 32.6474C38.6164 32.6391 38.5637 32.6349 38.5081 32.6349C38.3755 32.6349 38.2571 32.6628 38.153 32.7184C38.05 32.7728 37.9683 32.8486 37.9079 32.9457C37.8488 33.0415 37.8192 33.151 37.8192 33.2741V35H37.4001Z" fill="white"/>
</svg>
