<svg width="793" height="478" viewBox="0 0 793 478" fill="none" xmlns="http://www.w3.org/2000/svg">
<rect width="793" height="478" rx="40" fill="#D9D9D9"/>
<path d="M317.062 216.392V244.616C317.062 248.584 318.022 251.528 319.942 253.448C321.904 255.368 324.614 256.328 328.07 256.328C331.483 256.328 334.15 255.368 336.07 253.448C338.032 251.528 339.014 248.584 339.014 244.616V216.392H344.838V244.552C344.838 248.264 344.091 251.4 342.597 253.96C341.104 256.477 339.078 258.355 336.518 259.592C334 260.829 331.163 261.448 328.006 261.448C324.848 261.448 321.99 260.829 319.43 259.592C316.912 258.355 314.907 256.477 313.414 253.96C311.963 251.4 311.238 248.264 311.238 244.552V216.392H317.062ZM366.969 261.576C364.281 261.576 361.87 261.128 359.737 260.232C357.604 259.293 355.918 258.013 354.681 256.392C353.444 254.728 352.761 252.829 352.633 250.696H358.649C358.82 252.445 359.63 253.875 361.081 254.984C362.574 256.093 364.516 256.648 366.905 256.648C369.124 256.648 370.873 256.157 372.153 255.176C373.433 254.195 374.073 252.957 374.073 251.464C374.073 249.928 373.39 248.797 372.025 248.072C370.66 247.304 368.548 246.557 365.689 245.832C363.086 245.149 360.953 244.467 359.289 243.784C357.668 243.059 356.26 242.013 355.065 240.648C353.913 239.24 353.337 237.405 353.337 235.144C353.337 233.352 353.87 231.709 354.937 230.216C356.004 228.723 357.518 227.549 359.481 226.696C361.444 225.8 363.684 225.352 366.201 225.352C370.084 225.352 373.22 226.333 375.609 228.296C377.998 230.259 379.278 232.947 379.449 236.36H373.625C373.497 234.525 372.75 233.053 371.385 231.944C370.062 230.835 368.27 230.28 366.009 230.28C363.918 230.28 362.254 230.728 361.017 231.624C359.78 232.52 359.161 233.693 359.161 235.144C359.161 236.296 359.524 237.256 360.249 238.024C361.017 238.749 361.956 239.347 363.065 239.816C364.217 240.243 365.796 240.733 367.801 241.288C370.318 241.971 372.366 242.653 373.945 243.336C375.524 243.976 376.868 244.957 377.977 246.28C379.129 247.603 379.726 249.331 379.769 251.464C379.769 253.384 379.236 255.112 378.169 256.648C377.102 258.184 375.588 259.4 373.625 260.296C371.705 261.149 369.486 261.576 366.969 261.576ZM405.399 225.288C408.044 225.288 410.433 225.864 412.567 227.016C414.7 228.125 416.364 229.811 417.559 232.072C418.796 234.333 419.415 237.085 419.415 240.328V261H413.655V241.16C413.655 237.661 412.78 234.995 411.031 233.16C409.281 231.283 406.892 230.344 403.863 230.344C400.791 230.344 398.337 231.304 396.503 233.224C394.711 235.144 393.815 237.939 393.815 241.608V261H387.991V213.64H393.815V230.92C394.967 229.128 396.545 227.741 398.551 226.76C400.599 225.779 402.881 225.288 405.399 225.288ZM460.928 242.12C460.928 243.229 460.864 244.403 460.736 245.64H432.704C432.917 249.096 434.091 251.805 436.224 253.768C438.4 255.688 441.024 256.648 444.096 256.648C446.613 256.648 448.704 256.072 450.368 254.92C452.075 253.725 453.269 252.147 453.952 250.184H460.224C459.285 253.555 457.408 256.307 454.592 258.44C451.776 260.531 448.277 261.576 444.096 261.576C440.768 261.576 437.781 260.829 435.136 259.336C432.533 257.843 430.485 255.731 428.992 253C427.499 250.227 426.752 247.027 426.752 243.4C426.752 239.773 427.477 236.595 428.928 233.864C430.379 231.133 432.405 229.043 435.008 227.592C437.653 226.099 440.683 225.352 444.096 225.352C447.424 225.352 450.368 226.077 452.928 227.528C455.488 228.979 457.451 230.984 458.816 233.544C460.224 236.061 460.928 238.92 460.928 242.12ZM454.912 240.904C454.912 238.685 454.421 236.787 453.44 235.208C452.459 233.587 451.115 232.371 449.408 231.56C447.744 230.707 445.888 230.28 443.84 230.28C440.896 230.28 438.379 231.219 436.288 233.096C434.24 234.973 433.067 237.576 432.768 240.904H454.912ZM474.44 231.624C475.464 229.619 476.914 228.061 478.792 226.952C480.712 225.843 483.037 225.288 485.768 225.288V231.304H484.232C477.704 231.304 474.44 234.845 474.44 241.928V261H468.616V225.928H474.44V231.624Z" fill="black"/>
</svg>
