<svg width="793" height="478" viewBox="0 0 793 478" fill="none" xmlns="http://www.w3.org/2000/svg">
<rect width="793" height="478" rx="40" fill="#D9D9D9"/>
<path d="M209.992 216.392L197.064 261H190.536L180.168 225.096L169.416 261L162.952 261.064L150.472 216.392H156.68L166.408 254.216L177.16 216.392H183.688L193.928 254.088L203.72 216.392H209.992ZM231.662 261.576C228.376 261.576 225.39 260.829 222.702 259.336C220.056 257.843 217.966 255.731 216.43 253C214.936 250.227 214.19 247.027 214.19 243.4C214.19 239.816 214.958 236.659 216.494 233.928C218.072 231.155 220.206 229.043 222.894 227.592C225.582 226.099 228.59 225.352 231.918 225.352C235.246 225.352 238.254 226.099 240.942 227.592C243.63 229.043 245.742 231.133 247.278 233.864C248.856 236.595 249.646 239.773 249.646 243.4C249.646 247.027 248.835 250.227 247.214 253C245.635 255.731 243.48 257.843 240.75 259.336C238.019 260.829 234.99 261.576 231.662 261.576ZM231.662 256.456C233.752 256.456 235.715 255.965 237.55 254.984C239.384 254.003 240.856 252.531 241.966 250.568C243.118 248.605 243.694 246.216 243.694 243.4C243.694 240.584 243.139 238.195 242.03 236.232C240.92 234.269 239.47 232.819 237.678 231.88C235.886 230.899 233.944 230.408 231.854 230.408C229.72 230.408 227.758 230.899 225.966 231.88C224.216 232.819 222.808 234.269 221.742 236.232C220.675 238.195 220.142 240.584 220.142 243.4C220.142 246.259 220.654 248.669 221.678 250.632C222.744 252.595 224.152 254.067 225.902 255.048C227.651 255.987 229.571 256.456 231.662 256.456ZM263.127 231.624C264.151 229.619 265.602 228.061 267.479 226.952C269.399 225.843 271.724 225.288 274.455 225.288V231.304H272.919C266.391 231.304 263.127 234.845 263.127 241.928V261H257.303V225.928H263.127V231.624ZM293.594 261.576C290.906 261.576 288.495 261.128 286.362 260.232C284.229 259.293 282.543 258.013 281.306 256.392C280.069 254.728 279.386 252.829 279.258 250.696H285.274C285.445 252.445 286.255 253.875 287.706 254.984C289.199 256.093 291.141 256.648 293.53 256.648C295.749 256.648 297.498 256.157 298.778 255.176C300.058 254.195 300.698 252.957 300.698 251.464C300.698 249.928 300.015 248.797 298.65 248.072C297.285 247.304 295.173 246.557 292.314 245.832C289.711 245.149 287.578 244.467 285.914 243.784C284.293 243.059 282.885 242.013 281.69 240.648C280.538 239.24 279.962 237.405 279.962 235.144C279.962 233.352 280.495 231.709 281.562 230.216C282.629 228.723 284.143 227.549 286.106 226.696C288.069 225.8 290.309 225.352 292.826 225.352C296.709 225.352 299.845 226.333 302.234 228.296C304.623 230.259 305.903 232.947 306.074 236.36H300.25C300.122 234.525 299.375 233.053 298.01 231.944C296.687 230.835 294.895 230.28 292.634 230.28C290.543 230.28 288.879 230.728 287.642 231.624C286.405 232.52 285.786 233.693 285.786 235.144C285.786 236.296 286.149 237.256 286.874 238.024C287.642 238.749 288.581 239.347 289.69 239.816C290.842 240.243 292.421 240.733 294.426 241.288C296.943 241.971 298.991 242.653 300.57 243.336C302.149 243.976 303.493 244.957 304.602 246.28C305.754 247.603 306.351 249.331 306.394 251.464C306.394 253.384 305.861 255.112 304.794 256.648C303.727 258.184 302.213 259.4 300.25 260.296C298.33 261.149 296.111 261.576 293.594 261.576ZM332.024 225.288C334.669 225.288 337.058 225.864 339.192 227.016C341.325 228.125 342.989 229.811 344.184 232.072C345.421 234.333 346.04 237.085 346.04 240.328V261H340.28V241.16C340.28 237.661 339.405 234.995 337.656 233.16C335.906 231.283 333.517 230.344 330.488 230.344C327.416 230.344 324.962 231.304 323.128 233.224C321.336 235.144 320.44 237.939 320.44 241.608V261H314.616V213.64H320.44V230.92C321.592 229.128 323.17 227.741 325.176 226.76C327.224 225.779 329.506 225.288 332.024 225.288ZM358.561 220.232C357.452 220.232 356.513 219.848 355.745 219.08C354.977 218.312 354.593 217.373 354.593 216.264C354.593 215.155 354.977 214.216 355.745 213.448C356.513 212.68 357.452 212.296 358.561 212.296C359.628 212.296 360.524 212.68 361.249 213.448C362.017 214.216 362.401 215.155 362.401 216.264C362.401 217.373 362.017 218.312 361.249 219.08C360.524 219.848 359.628 220.232 358.561 220.232ZM361.377 225.928V261H355.553V225.928H361.377ZM377.127 232.392C378.279 230.387 379.986 228.723 382.247 227.4C384.551 226.035 387.218 225.352 390.247 225.352C393.362 225.352 396.178 226.099 398.695 227.592C401.255 229.085 403.26 231.197 404.711 233.928C406.162 236.616 406.887 239.752 406.887 243.336C406.887 246.877 406.162 250.035 404.711 252.808C403.26 255.581 401.255 257.736 398.695 259.272C396.178 260.808 393.362 261.576 390.247 261.576C387.26 261.576 384.615 260.915 382.311 259.592C380.05 258.227 378.322 256.541 377.127 254.536V277.64H371.303V225.928H377.127V232.392ZM400.935 243.336C400.935 240.691 400.402 238.387 399.335 236.424C398.268 234.461 396.818 232.968 394.983 231.944C393.191 230.92 391.207 230.408 389.031 230.408C386.898 230.408 384.914 230.941 383.079 232.008C381.287 233.032 379.836 234.547 378.727 236.552C377.66 238.515 377.127 240.797 377.127 243.4C377.127 246.045 377.66 248.371 378.727 250.376C379.836 252.339 381.287 253.853 383.079 254.92C384.914 255.944 386.898 256.456 389.031 256.456C391.207 256.456 393.191 255.944 394.983 254.92C396.818 253.853 398.268 252.339 399.335 250.376C400.402 248.371 400.935 246.024 400.935 243.336ZM437.44 256.264H453.056V261H431.616V216.392H437.44V256.264ZM491.241 242.12C491.241 243.229 491.177 244.403 491.049 245.64H463.017C463.23 249.096 464.403 251.805 466.537 253.768C468.713 255.688 471.337 256.648 474.409 256.648C476.926 256.648 479.017 256.072 480.681 254.92C482.387 253.725 483.582 252.147 484.265 250.184H490.537C489.598 253.555 487.721 256.307 484.905 258.44C482.089 260.531 478.59 261.576 474.409 261.576C471.081 261.576 468.094 260.829 465.449 259.336C462.846 257.843 460.798 255.731 459.305 253C457.811 250.227 457.065 247.027 457.065 243.4C457.065 239.773 457.79 236.595 459.241 233.864C460.691 231.133 462.718 229.043 465.321 227.592C467.966 226.099 470.995 225.352 474.409 225.352C477.737 225.352 480.681 226.077 483.241 227.528C485.801 228.979 487.763 230.984 489.129 233.544C490.537 236.061 491.241 238.92 491.241 242.12ZM485.225 240.904C485.225 238.685 484.734 236.787 483.753 235.208C482.771 233.587 481.427 232.371 479.721 231.56C478.057 230.707 476.201 230.28 474.153 230.28C471.209 230.28 468.691 231.219 466.601 233.096C464.553 234.973 463.379 237.576 463.081 240.904H485.225ZM496.752 243.336C496.752 239.752 497.477 236.616 498.928 233.928C500.379 231.197 502.363 229.085 504.88 227.592C507.44 226.099 510.277 225.352 513.392 225.352C516.464 225.352 519.131 226.013 521.392 227.336C523.653 228.659 525.339 230.323 526.448 232.328V225.928H532.336V261H526.448V254.472C525.296 256.52 523.568 258.227 521.264 259.592C519.003 260.915 516.357 261.576 513.328 261.576C510.213 261.576 507.397 260.808 504.88 259.272C502.363 257.736 500.379 255.581 498.928 252.808C497.477 250.035 496.752 246.877 496.752 243.336ZM526.448 243.4C526.448 240.755 525.915 238.451 524.848 236.488C523.781 234.525 522.331 233.032 520.496 232.008C518.704 230.941 516.72 230.408 514.544 230.408C512.368 230.408 510.384 230.92 508.592 231.944C506.8 232.968 505.371 234.461 504.304 236.424C503.237 238.387 502.704 240.691 502.704 243.336C502.704 246.024 503.237 248.371 504.304 250.376C505.371 252.339 506.8 253.853 508.592 254.92C510.384 255.944 512.368 256.456 514.544 256.456C516.72 256.456 518.704 255.944 520.496 254.92C522.331 253.853 523.781 252.339 524.848 250.376C525.915 248.371 526.448 246.045 526.448 243.4ZM540.002 243.336C540.002 239.752 540.727 236.616 542.178 233.928C543.629 231.197 545.613 229.085 548.13 227.592C550.69 226.099 553.549 225.352 556.706 225.352C559.437 225.352 561.975 225.992 564.322 227.272C566.669 228.509 568.461 230.152 569.698 232.2V213.64H575.586V261H569.698V254.408C568.546 256.499 566.839 258.227 564.578 259.592C562.317 260.915 559.671 261.576 556.642 261.576C553.527 261.576 550.69 260.808 548.13 259.272C545.613 257.736 543.629 255.581 542.178 252.808C540.727 250.035 540.002 246.877 540.002 243.336ZM569.698 243.4C569.698 240.755 569.165 238.451 568.098 236.488C567.031 234.525 565.581 233.032 563.746 232.008C561.954 230.941 559.97 230.408 557.794 230.408C555.618 230.408 553.634 230.92 551.842 231.944C550.05 232.968 548.621 234.461 547.554 236.424C546.487 238.387 545.954 240.691 545.954 243.336C545.954 246.024 546.487 248.371 547.554 250.376C548.621 252.339 550.05 253.853 551.842 254.92C553.634 255.944 555.618 256.456 557.794 256.456C559.97 256.456 561.954 255.944 563.746 254.92C565.581 253.853 567.031 252.339 568.098 250.376C569.165 248.371 569.698 246.045 569.698 243.4ZM617.428 242.12C617.428 243.229 617.364 244.403 617.236 245.64H589.204C589.417 249.096 590.591 251.805 592.724 253.768C594.9 255.688 597.524 256.648 600.596 256.648C603.113 256.648 605.204 256.072 606.868 254.92C608.575 253.725 609.769 252.147 610.452 250.184H616.724C615.785 253.555 613.908 256.307 611.092 258.44C608.276 260.531 604.777 261.576 600.596 261.576C597.268 261.576 594.281 260.829 591.636 259.336C589.033 257.843 586.985 255.731 585.492 253C583.999 250.227 583.252 247.027 583.252 243.4C583.252 239.773 583.977 236.595 585.428 233.864C586.879 231.133 588.905 229.043 591.508 227.592C594.153 226.099 597.183 225.352 600.596 225.352C603.924 225.352 606.868 226.077 609.428 227.528C611.988 228.979 613.951 230.984 615.316 233.544C616.724 236.061 617.428 238.92 617.428 242.12ZM611.412 240.904C611.412 238.685 610.921 236.787 609.94 235.208C608.959 233.587 607.615 232.371 605.908 231.56C604.244 230.707 602.388 230.28 600.34 230.28C597.396 230.28 594.879 231.219 592.788 233.096C590.74 234.973 589.567 237.576 589.268 240.904H611.412ZM630.94 231.624C631.964 229.619 633.414 228.061 635.292 226.952C637.212 225.843 639.537 225.288 642.268 225.288V231.304H640.732C634.204 231.304 630.94 234.845 630.94 241.928V261H625.116V225.928H630.94V231.624Z" fill="black"/>
</svg>
