<svg width="600" height="401" viewBox="0 0 600 401" fill="none" xmlns="http://www.w3.org/2000/svg">
<rect width="600" height="400.496" rx="20" fill="#313638"/>
<path d="M94.976 144.176C94.4213 143.28 93.632 142.597 92.608 142.128C91.584 141.616 90.3467 141.36 88.896 141.36C86.1653 141.36 84.0533 142.256 82.56 144.048C81.0667 145.797 80.32 148.208 80.32 151.28C80.32 154.821 81.152 157.467 82.816 159.216C84.48 160.965 87.04 161.84 90.496 161.84C93.7813 161.84 96.4267 160.517 98.432 157.872H87.104V147.824H110.208V162.032C108.245 165.403 105.536 168.304 102.08 170.736C98.624 173.125 94.2507 174.32 88.96 174.32C84.2667 174.32 80.1707 173.36 76.672 171.44C73.216 169.477 70.5493 166.747 68.672 163.248C66.8373 159.749 65.92 155.76 65.92 151.28C65.92 146.8 66.8373 142.811 68.672 139.312C70.5493 135.813 73.216 133.104 76.672 131.184C80.128 129.221 84.1813 128.24 88.832 128.24C94.7627 128.24 99.584 129.669 103.296 132.528C107.051 135.387 109.269 139.269 109.952 144.176H94.976ZM150.909 174L142.397 157.744H142.333V174H128.125V128.688H149.245C152.914 128.688 156.05 129.349 158.653 130.672C161.256 131.952 163.197 133.723 164.477 135.984C165.8 138.203 166.461 140.72 166.461 143.536C166.461 146.565 165.608 149.253 163.901 151.6C162.237 153.947 159.826 155.632 156.669 156.656L166.525 174H150.909ZM142.333 148.272H147.965C149.33 148.272 150.354 147.973 151.037 147.376C151.72 146.736 152.061 145.755 152.061 144.432C152.061 143.237 151.698 142.299 150.973 141.616C150.29 140.933 149.288 140.592 147.965 140.592H142.333V148.272ZM212.856 167.152H197.752L195.512 174H180.6L197.176 128.688H213.56L230.072 174H215.096L212.856 167.152ZM209.4 156.464L205.304 143.856L201.208 156.464H209.4ZM281.684 128.688V139.952H269.652V174H255.444V139.952H243.54V128.688H281.684ZM312.545 128.688V174H298.337V128.688H312.545ZM367.347 128.688V139.952H355.315V174H341.107V139.952H329.203V128.688H367.347ZM397.888 128.688V154.224C397.888 156.315 398.336 157.979 399.232 159.216C400.171 160.411 401.664 161.008 403.712 161.008C405.76 161.008 407.275 160.411 408.256 159.216C409.237 157.979 409.728 156.315 409.728 154.224V128.688H423.872V154.224C423.872 158.533 422.976 162.224 421.184 165.296C419.392 168.325 416.939 170.608 413.824 172.144C410.709 173.68 407.232 174.448 403.392 174.448C399.552 174.448 396.139 173.68 393.152 172.144C390.208 170.608 387.904 168.325 386.24 165.296C384.576 162.267 383.744 158.576 383.744 154.224V128.688H397.888ZM461.68 128.688C466.416 128.688 470.555 129.648 474.096 131.568C477.68 133.488 480.432 136.155 482.352 139.568C484.272 142.981 485.232 146.864 485.232 151.216C485.232 155.525 484.272 159.408 482.352 162.864C480.432 166.32 477.68 169.051 474.096 171.056C470.555 173.019 466.416 174 461.68 174H442.8V128.688H461.68ZM460.4 161.328C463.6 161.328 466.139 160.453 468.016 158.704C469.893 156.955 470.832 154.459 470.832 151.216C470.832 147.973 469.893 145.477 468.016 143.728C466.139 141.979 463.6 141.104 460.4 141.104H457.008V161.328H460.4ZM517.37 140.016V145.584H531.45V156.272H517.37V162.672H533.37V174H503.162V128.688H533.37V140.016H517.37Z" fill="#FF8947"/>
<path d="M119.78 220.16H124.48V222H117.5V208.1H119.78V220.16ZM132.667 208.1V222H130.387V208.1H132.667ZM151.64 208.1L146.42 222H143.78L138.54 208.1H140.98L145.1 219.66L149.24 208.1H151.64ZM159.827 209.94V214.02H164.627V215.88H159.827V220.14H165.227V222H157.547V208.08H165.227V209.94H159.827ZM189.61 219.16H183.79L182.79 222H180.41L185.39 208.08H188.03L193.01 222H190.61L189.61 219.16ZM188.97 217.3L186.71 210.84L184.43 217.3H188.97ZM208.156 208.1V209.96H204.456V222H202.176V209.96H198.456V208.1H208.156ZM231.1 214.86C231.847 214.993 232.48 215.387 233 216.04C233.52 216.693 233.78 217.433 233.78 218.26C233.78 218.967 233.593 219.607 233.22 220.18C232.86 220.74 232.333 221.187 231.64 221.52C230.947 221.84 230.14 222 229.22 222H223.66V208.1H228.96C229.907 208.1 230.72 208.26 231.4 208.58C232.08 208.9 232.593 209.333 232.94 209.88C233.287 210.413 233.46 211.013 233.46 211.68C233.46 212.48 233.247 213.147 232.82 213.68C232.393 214.213 231.82 214.607 231.1 214.86ZM225.94 213.94H228.76C229.507 213.94 230.087 213.773 230.5 213.44C230.927 213.093 231.14 212.6 231.14 211.96C231.14 211.333 230.927 210.847 230.5 210.5C230.087 210.14 229.507 209.96 228.76 209.96H225.94V213.94ZM229.02 220.14C229.793 220.14 230.4 219.953 230.84 219.58C231.28 219.207 231.5 218.687 231.5 218.02C231.5 217.34 231.267 216.8 230.8 216.4C230.333 216 229.713 215.8 228.94 215.8H225.94V220.14H229.02ZM248.638 219.16H242.818L241.818 222H239.438L244.418 208.08H247.058L252.038 222H249.638L248.638 219.16ZM247.998 217.3L245.738 210.84L243.458 217.3H247.998ZM260.483 220.16H265.183V222H258.203V208.1H260.483V220.16ZM273.37 208.1V222H271.09V208.1H273.37ZM291.819 208.1V216.96C291.819 218.013 292.092 218.807 292.639 219.34C293.199 219.873 293.972 220.14 294.959 220.14C295.959 220.14 296.732 219.873 297.279 219.34C297.839 218.807 298.119 218.013 298.119 216.96V208.1H300.399V216.92C300.399 218.053 300.152 219.013 299.659 219.8C299.165 220.587 298.505 221.173 297.679 221.56C296.852 221.947 295.939 222.14 294.939 222.14C293.939 222.14 293.025 221.947 292.199 221.56C291.385 221.173 290.739 220.587 290.259 219.8C289.779 219.013 289.539 218.053 289.539 216.92V208.1H291.819ZM318.787 222H316.507L309.647 211.62V222H307.367V208.08H309.647L316.507 218.44V208.08H318.787V222ZM328.061 208.1V222H325.781V208.1H328.061ZM344.035 208.1V209.96H340.335V222H338.055V209.96H334.335V208.1H344.035ZM352.624 209.94V214.02H357.424V215.88H352.624V220.14H358.024V222H350.344V208.08H358.024V209.94H352.624ZM369.372 208.1C370.852 208.1 372.145 208.387 373.252 208.96C374.372 209.52 375.232 210.333 375.832 211.4C376.445 212.453 376.752 213.687 376.752 215.1C376.752 216.513 376.445 217.74 375.832 218.78C375.232 219.82 374.372 220.62 373.252 221.18C372.145 221.727 370.852 222 369.372 222H364.832V208.1H369.372ZM369.372 220.14C370.999 220.14 372.245 219.7 373.112 218.82C373.979 217.94 374.412 216.7 374.412 215.1C374.412 213.487 373.979 212.227 373.112 211.32C372.245 210.413 370.999 209.96 369.372 209.96H367.112V220.14H369.372ZM396.787 222.14C395.854 222.14 395.014 221.98 394.267 221.66C393.52 221.327 392.934 220.86 392.507 220.26C392.08 219.66 391.867 218.96 391.867 218.16H394.307C394.36 218.76 394.594 219.253 395.007 219.64C395.434 220.027 396.027 220.22 396.787 220.22C397.574 220.22 398.187 220.033 398.627 219.66C399.067 219.273 399.287 218.78 399.287 218.18C399.287 217.713 399.147 217.333 398.867 217.04C398.6 216.747 398.26 216.52 397.847 216.36C397.447 216.2 396.887 216.027 396.167 215.84C395.26 215.6 394.52 215.36 393.947 215.12C393.387 214.867 392.907 214.48 392.507 213.96C392.107 213.44 391.907 212.747 391.907 211.88C391.907 211.08 392.107 210.38 392.507 209.78C392.907 209.18 393.467 208.72 394.187 208.4C394.907 208.08 395.74 207.92 396.687 207.92C398.034 207.92 399.134 208.26 399.987 208.94C400.854 209.607 401.334 210.527 401.427 211.7H398.907C398.867 211.193 398.627 210.76 398.187 210.4C397.747 210.04 397.167 209.86 396.447 209.86C395.794 209.86 395.26 210.027 394.847 210.36C394.434 210.693 394.227 211.173 394.227 211.8C394.227 212.227 394.354 212.58 394.607 212.86C394.874 213.127 395.207 213.34 395.607 213.5C396.007 213.66 396.554 213.833 397.247 214.02C398.167 214.273 398.914 214.527 399.487 214.78C400.074 215.033 400.567 215.427 400.967 215.96C401.38 216.48 401.587 217.18 401.587 218.06C401.587 218.767 401.394 219.433 401.007 220.06C400.634 220.687 400.08 221.193 399.347 221.58C398.627 221.953 397.774 222.14 396.787 222.14ZM417.257 208.1V209.96H413.557V222H411.277V209.96H407.557V208.1H417.257ZM425.826 208.1V216.96C425.826 218.013 426.1 218.807 426.646 219.34C427.206 219.873 427.98 220.14 428.966 220.14C429.966 220.14 430.74 219.873 431.286 219.34C431.846 218.807 432.126 218.013 432.126 216.96V208.1H434.406V216.92C434.406 218.053 434.16 219.013 433.666 219.8C433.173 220.587 432.513 221.173 431.686 221.56C430.86 221.947 429.946 222.14 428.946 222.14C427.946 222.14 427.033 221.947 426.206 221.56C425.393 221.173 424.746 220.587 424.266 219.8C423.786 219.013 423.546 218.053 423.546 216.92V208.1H425.826ZM445.915 208.1C447.395 208.1 448.688 208.387 449.795 208.96C450.915 209.52 451.775 210.333 452.375 211.4C452.988 212.453 453.295 213.687 453.295 215.1C453.295 216.513 452.988 217.74 452.375 218.78C451.775 219.82 450.915 220.62 449.795 221.18C448.688 221.727 447.395 222 445.915 222H441.375V208.1H445.915ZM445.915 220.14C447.542 220.14 448.788 219.7 449.655 218.82C450.522 217.94 450.955 216.7 450.955 215.1C450.955 213.487 450.522 212.227 449.655 211.32C448.788 210.413 447.542 209.96 445.915 209.96H443.655V220.14H445.915ZM461.835 208.1V222H459.555V208.1H461.835ZM475.168 222.14C473.875 222.14 472.681 221.84 471.588 221.24C470.508 220.627 469.648 219.78 469.008 218.7C468.381 217.607 468.068 216.38 468.068 215.02C468.068 213.66 468.381 212.44 469.008 211.36C469.648 210.28 470.508 209.44 471.588 208.84C472.681 208.227 473.875 207.92 475.168 207.92C476.475 207.92 477.668 208.227 478.748 208.84C479.841 209.44 480.701 210.28 481.328 211.36C481.955 212.44 482.268 213.66 482.268 215.02C482.268 216.38 481.955 217.607 481.328 218.7C480.701 219.78 479.841 220.627 478.748 221.24C477.668 221.84 476.475 222.14 475.168 222.14ZM475.168 220.16C476.088 220.16 476.908 219.953 477.628 219.54C478.348 219.113 478.908 218.513 479.308 217.74C479.721 216.953 479.928 216.047 479.928 215.02C479.928 213.993 479.721 213.093 479.308 212.32C478.908 211.547 478.348 210.953 477.628 210.54C476.908 210.127 476.088 209.92 475.168 209.92C474.248 209.92 473.428 210.127 472.708 210.54C471.988 210.953 471.421 211.547 471.008 212.32C470.608 213.093 470.408 213.993 470.408 215.02C470.408 216.047 470.608 216.953 471.008 217.74C471.421 218.513 471.988 219.113 472.708 219.54C473.428 219.953 474.248 220.16 475.168 220.16Z" fill="#D9D9D9"/>
</svg>
